<?xml version="1.0" encoding="UTF-8" standalone="no"?>
<svg
   xmlns:dc="http://purl.org/dc/elements/1.1/"
   xmlns:cc="http://creativecommons.org/ns#"
   xmlns:rdf="http://www.w3.org/1999/02/22-rdf-syntax-ns#"
   xmlns:svg="http://www.w3.org/2000/svg"
   xmlns="http://www.w3.org/2000/svg"
   viewBox="0 0 522.66669 240"
   height="54"
   width="224"
   xml:space="preserve"
   id="svg2"
   version="1.1"><metadata
     id="metadata8"><rdf:RDF><cc:Work
         rdf:about=""><dc:format>image/svg+xml</dc:format><dc:type
           rdf:resource="http://purl.org/dc/dcmitype/StillImage" /></cc:Work></rdf:RDF></metadata><defs
     id="defs6" /><g
     transform="matrix(1.3333333,0,0,-1.3333333,0,240)"
     id="g10"><g
       transform="scale(0.1)"
       id="g12"><path
         id="path14"
         style="fill:#8ac53d;fill-opacity:1;fill-rule:evenodd;stroke:none"
         d="m 1572.03,715.512 -3.01,18.976 -5.5,26.024 -5,16.008 -6.49,14.5 -7.5,16.48 -8.51,18.012 -8.99,11.008 -1.52,3.48 -3.01,4.488 -7.97,10 -8.51,-9.488 -3.01,-1.48 -2.5,-3.52 -17.5,-12.5 -22.5,-10.98 -12.5,-3.508 -14.49,-3.992 -12.5,-3.508 -16.02,-1.024 -15.98,-0.968 -18,1.992 -17.5,1.988 -20.51,2.5 -19.49,5 -23.01,7.5 -21.49,8.52 -24.49,10 -29.02,13.98 -26.99,17.5 -24.5,16.988 -21.99,16.024 -23.01,18.008 -19.02,18 -17.5,18.992 -17.5,18.508 -0.98,2 -16.52,25 -15.47,25.97 -14.53,25 -10.98,25 -10.5,25 -7,23.01 -7.5,23.01 -3.508,20.51 -6.492,35.5 -3,29.5 v 25 l 13.511,-9.03 16.989,-10.47 21.49,-12.5 28.01,-12.5 34.49,-13 39.49,-14.03 45,-8.98 44.02,-7.5 47.5,-3.01 41.49,-3.01 36.99,-7.5 33.52,-10.97 31.01,-13.01 30,-16.02 24.49,-16.48 22,-20.51 19.49,-21.99 12.5,-17.5 9.49,-16.99 8.01,-16.02 6.01,-17.5 2.5,-4.488 0.98,-5.512 2.5,-7.5 0.51,-1.48 3.51,-23.008 0.51,-22.5 v -6.492 l -1.01,-2.5 -1.02,-9.02 1.02,-1.48 -8.01,10 -0.51,1.48 -0.98,1.52 -1.99,3.48 -8.01,9.488 -11.01,12.5 -13.99,12.5 -13,11.024 -13.01,8.976 -28.48,16.532 -30,11.48 -29.53,11.99 -30,5 -28.48,6.02 -29.02,3.51 -20,5.47 -38.98,10 -16.49,7.03 -26.01,12 -18.01,9.49 -18.01,12.5 18.01,-16.49 28.01,-22.5 16.99,-11.01 16.52,-11.02 14.49,-6.48 13.99,-6.02 46.01,-14.49 43.01,-16.48 33.99,-11.532 21.01,-7.968 24.49,-12.5 23.48,-13 25.51,-18.52 24.02,-19.488 23.48,-25.512 11.99,-13.98 1.02,-1.532 6.01,-6.476 0.98,-1.992 13.51,-19.032 12.5,-21.476 3.01,-4.492 0.98,-5.508 3.01,-4.492 13,-30 9.5,-34.032 -36.49,-21.476" /><path
         id="path16"
         style="fill:#006635;fill-opacity:1;fill-rule:evenodd;stroke:none"
         d="m 2082.03,745.512 16.99,-5.512 23.01,-5 14.49,-0.98 15.98,-1.52 16.52,-1.48 19.5,1.48 11.99,1.988 4.02,0.512 3.99,1.02 12.5,3.468 -4.5,10.512 -0.5,4.02 -1.02,2.5 -3.48,19.5 -0.5,22.5 2.5,25.5 4.49,13.992 4.49,13.508 6.02,13.48 8,14.02 8.99,15.98 11.52,13.52 12.97,16.48 14.02,14.488 15.98,15.512 18.52,16.52 24.49,18.992 24.02,16.478 23.48,13.52 24.49,13.01 24.53,10.97 22.5,8.01 22.97,8.01 23.01,6.01 30,5.47 26.99,3.01 26.52,0.51 26.49,1.01 24.02,-2.03 23.48,-3.47 40.51,-7 32.5,-10.5 25.5,-8.01 21.49,-10.51 -11.99,-7.5 -16.02,-9.49 -20,-14.49 -22.97,-19.032 -24.02,-22.968 -25.98,-29.02 -27.5,-33.012 -24.02,-35.968 -21.49,-38.008 -19.02,-31.492 -20.47,-29.532 -23.01,-24.488 -23.51,-20.98 -24.49,-18.508 -25,-12.5 -26.02,-11.024 -25,-8.468 -1.99,0.5 -18.01,-4.02 -19.49,-1.48 h -16.99 l -17.5,1.48 -3.52,1.52 -5.47,-0.5 -7.03,2.5 -1.99,0.5 -20.98,4.5 -20,8.468 -4.53,3.012 -1.48,0.512 -7.5,6.476 9.49,0.512 1.99,1.02 2.5,1.48 3.52,-0.98 10.5,3.992 16.49,3.976 15.51,6.532 13,7.5 13.99,6.992 25,16.008 21.99,21.492 20,21.988 18.52,21.988 16.01,21.532 15,23.468 11.99,15 12,13.524 11.48,13.008 13.52,12.5 20,15.968 16.99,12.032 16.01,10 -21.01,-8.508 -28.99,-13.524 -16.01,-10 -16.99,-11.476 -11.49,-7.5 -9.02,-10.512 -33.01,-32.5 -30,-28.48 -22.97,-26.52 -17.03,-13.48 -17.97,-15 -22.03,-16.008 -24.49,-12.5 -26.49,-12.5 -46.52,-15.512 -1.48,0.512 -10.51,-2.5 -23.48,-3.524 -23.51,-1.988 -5.51,-0.512 -3.48,1.532 -0.51,-2 -3.51,0.98 -31.49,0.512 -31.99,4.488 -2.5,40.512" /><path
         id="path18"
         style="fill:#38b34a;fill-opacity:1;fill-rule:evenodd;stroke:none"
         d="m 1690,745.512 25,12.5 35,15 20,12.5 22.5,15 20,17.5 22.5,20 12.03,12.5 5,7.5 17.5,17.5 -17.5,10 -5,5 h -2.5 L 1817.5,912.5 1805,925.512 1792.5,940 l -10,15 -10,17.5 -10,20 -7.5,22.5 -7.5,21.99 -5,25 -5,55 v 32.5 l 2.5,32.5 2.5,35 5,37.5 12.5,47.03 12.5,42 15,42.5 35,75 19.53,35 20,32.5 22.5,30 30,35 32.5,31.48 65,55 30,22.5 32.5,20 30,15 26.99,15 53.01,22.5 40,15 37.5,10 -10,-22.5 -7.5,-27.5 -10,-37.5 -7.5,-45 -7.5,-51.48 -5,-62.5 2.5,-67.5 7.5,-65 12.5,-67.5 5,-29.5 5,-30 2.5,-54.53 -2.5,-52.5 -7.5,-47.5 -12.5,-47.5 -15,-42.5 -20,-36.99 -25,-35 V 975 l -20.51,-22.5 -22.5,-20 -19.49,-17.5 -25,-15 -5,-4.488 -7.5,-3.012 v -1.988 l -10,-5 h -2.5 l -32.5,-15 -32.5,-10 h -12.5 l -12.5,-2.5 h -2.5 l 15,15 v 2.5 l 5,5 10,11.988 15,22.5 12.5,22.5 20,45 7.5,22.5 5,25 7.5,44.49 2.5,47.5 v 45 l -2.5,42.5 -5,42.5 -2.5,29.53 v 27.5 l 2.5,29.5 2.5,27.5 7.5,40 20,60 -17.5,-32.5 -22.5,-47.5 -10,-27.5 -10,-30 -5,-19.5 -2.5,-22.5 -5,-72.03 -7.5,-65 v -22.5 l -2.5,-30 -5,-35 -7.5,-36.99 -12.5,-40 -15,-40 -22.5,-41.988 -25,-42.5 -15,-22.5 -12.5,-12.5 v -2.5 l -25,-25 -27.03,-27.5 -10,-10 -7.5,-5 -37.5,-26.992 -45,-27.5 -45,44.492" /><path
         id="path20"
         style="fill:#000000;fill-opacity:1;fill-rule:nonzero;stroke:none"
         d="m 168.52,329.488 c 20,-3.668 36.25,-12.648 48.75,-27.027 12.5,-14.301 18.75,-31.563 18.75,-51.871 0,-36.371 -15.711,-65.391 -47.04,-87.039 -28.359,-19.68 -61.679,-29.531 -99.9995,-29.531 -13.9805,0 -27.4219,1.371 -40.3086,4.07 -12.8125,2.57 -27.5821,6.75 -44.22268,12.5 1.33203,8.629 2.35156,18.941 2.97266,30.93 0.69921,11.96 1.09765,23.48 1.09765,34.531 H 21.9492 c 0,-20.313 7.6992,-35.699 23.1289,-46.09 12.8907,-8.672 30.1914,-12.973 51.8711,-12.973 29.0708,0 52.1098,6.723 69.2228,20.16 17.187,13.512 25.777,31.481 25.777,53.903 0,14.687 -4.179,27.5 -12.5,38.437 -9.289,12.391 -22.109,19.731 -38.429,22.032 l -87.0395,12.5 c -17.6094,2.699 -31.0117,11.449 -40.1524,26.25 -9.17966,14.769 -13.749975,32.39 -13.749975,52.82 0,31.25 13.121075,57.219 39.371075,77.961 24.6914,19.258 53.211,28.91 85.6288,28.91 14.57,0 29.262,-1.949 44.063,-5.781 14.879,-3.75 29.687,-9.141 44.379,-16.09 -5.321,-20 -8.989,-38.871 -10.942,-56.57 h -9.527 c 0,10.32 -1.68,21.289 -5,32.968 -7.43,9.063 -16.531,15.864 -27.352,20.473 -10.859,4.687 -22.73,7.027 -35.621,7.027 -22.109,0 -41.6366,-7.648 -58.5975,-22.968 -16.9922,-15.309 -25.461,-32.649 -25.461,-52.032 0,-12.297 2.0703,-23.238 6.25,-32.808 4.1407,-9.489 11.4024,-15.231 21.711,-17.192 z M 540.352,150.59 v -11.57 h -78.903 v 42.031 c -16.058,-13.672 -31.879,-27.141 -47.5,-40.461 -9.379,-4.379 -22.929,-6.57 -40.629,-6.57 -17.3,0 -32.621,4.691 -45.941,14.07 -14.68,10.308 -22.027,23.281 -22.027,38.898 v 137.5 c 0,5.711 -3.051,9.614 -9.063,11.723 -5.937,2.187 -13.09,3.277 -21.41,3.277 -2.301,0 -4.488,0 -6.559,0 -0.308,0 -0.621,-0.148 -0.941,-0.468 v 12.031 l 80,20.469 2.031,-5 V 199.488 c 0,-10.617 4.57,-19.367 13.75,-26.25 9.141,-6.789 19.57,-10.148 31.25,-10.148 15.32,0 30.32,5.031 45,15.148 14.692,10.203 22.039,20.981 22.039,32.352 v 116.871 c 0,5 -2.777,8.48 -8.289,10.469 -5.539,2.07 -12.14,3.121 -19.84,3.121 -3.359,0 -6.679,-0.153 -10,-0.461 -0.941,0 -2.269,-0.238 -3.91,-0.629 v 11.09 l 82.969,20.469 4.07,-5 v -200 c 0,-6.68 5.621,-11.36 16.871,-14.059 3.75,-0.621 9.41,-1.25 17.032,-1.871 z" /><path
         id="path22"
         style="fill:#000000;fill-opacity:1;fill-rule:nonzero;stroke:none"
         d="m 759.57,351.051 h 64.532 l -9.532,-22.5 -40.468,-1.09 c 1.328,-3.359 2.347,-7.262 2.968,-11.723 0.629,-4.488 0.942,-8.707 0.942,-12.648 0,-30 -11.332,-52.352 -33.91,-67.039 -19.372,-12.731 -44.532,-19.063 -75.473,-19.063 -6.359,-3.039 -11.867,-7.187 -16.559,-12.5 -4.691,-5.308 -7.031,-11.168 -7.031,-17.5 0,-5.937 2.66,-10.539 7.973,-13.75 5.386,-3.117 11.91,-4.687 19.527,-4.687 h 93.59 c 15.633,0 28.172,-5.27 37.66,-15.781 9.449,-10.54 14.223,-23.43 14.223,-38.75 0,-35.3091 -13.832,-63.4692 -41.41,-84.5317 -25.313,-18.9375 -56.524,-28.43752 -93.59,-28.43752 -27.313,0 -50.282,6.17969 -68.91,18.43752 -21.372,14.0625 -32.032,32.9336 -32.032,56.5625 0,19.6875 8.828,36.2192 26.559,49.5392 5.633,4.289 14.422,9.058 26.41,14.371 -20.629,3.75 -30.937,14.098 -30.937,31.09 0.628,8.008 5.347,16.41 14.218,25.16 8.828,8.828 18.75,16.129 29.692,21.879 -17.313,3.941 -31.332,11.91 -42.032,23.898 -10.628,11.961 -15.941,26.293 -15.941,42.973 0,26.641 11.481,48.519 34.531,65.629 21.02,15.621 45.508,23.43 73.442,23.43 11.008,0 21.867,-2.18 32.5,-6.559 8.316,-3.359 18.008,-8.832 29.058,-16.41 z m -72.5,-120 c 15,0 27.539,5.859 37.66,17.66 10.192,11.879 15.309,26.641 15.309,44.379 0,15.308 -4.488,28.789 -13.437,40.461 -10.313,13.64 -23.832,20.469 -40.473,20.469 -15,0 -27.93,-5.782 -38.75,-17.34 -10.859,-11.481 -16.25,-25 -16.25,-40.629 0,-16.051 4.609,-30.391 13.91,-42.961 10.699,-14.692 24.731,-22.039 42.031,-22.039 z M 614.57,73.5508 c 2.27,-19.3711 11.129,-34.0625 26.559,-44.0625 13.641,-8.9375 30.633,-13.4375 50.941,-13.4375 20,0 38.481,5.5508 55.469,16.5703 16.949,10.9297 27.5,25.5781 31.563,43.8984 0.937,4.6914 1.41,9.5313 1.41,14.5313 0,11.6792 -1.992,21.0192 -5.942,27.9692 -5,8.679 -12.34,12.968 -22.031,12.968 h -96.41 c -12.418,0 -22.5,-5.187 -30.309,-15.617 -7.808,-10.512 -11.718,-22.9726 -11.718,-37.3515 0.308,-2.2578 0.468,-4.0976 0.468,-5.4687 z" /><path
         id="path24"
         style="fill:#000000;fill-opacity:1;fill-rule:nonzero;stroke:none"
         d="m 1068.91,150.59 v -11.57 h -72.5 v 40.941 c -14.301,-13.359 -25.941,-22.973 -35,-28.91 -14.691,-9.68 -28.519,-14.531 -41.41,-14.531 -18.75,0 -34.141,4.14 -46.09,12.5 -13.68,9.378 -20.469,23.21 -20.469,41.57 0,22.57 7.649,40.699 22.969,54.371 12.379,11.019 30.539,19.57 54.531,25.629 13.321,3.32 35.149,6.949 65.469,10.93 v 27.5 c 0,7.269 -5.859,15.082 -17.5,23.441 -13.359,9.687 -27.5,14.527 -42.5,14.527 -14.301,0 -25.59,-4.019 -33.91,-12.027 -7.109,-6.68 -12.461,-16.68 -16.09,-30 l -13.91,3.129 1.879,28.898 c 11.32,7.391 20.5,12.891 27.5,16.563 21.641,11.328 39.84,17.039 54.531,17.039 20.699,0 39.141,-5.629 55.31,-16.879 16.13,-11.172 24.22,-22.891 24.22,-35.16 V 174.02 c 0,-6.989 1.95,-12.301 5.94,-15.93 5.39,-5 14.41,-7.5 27.03,-7.5 z M 990,191.051 c 1.25,1.961 2.578,4.109 4.059,6.41 1.562,2.379 2.351,5.078 2.351,8.129 v 57.5 c -25,0 -47,-4.852 -65.941,-14.539 -23.047,-11.672 -34.528,-28.039 -34.528,-49.063 0,-9.289 3.789,-17.769 11.399,-25.468 7.699,-7.731 16.41,-11.559 26.101,-11.559 10,0 19.61,2.5 28.899,7.5 9.379,5 18.601,12.027 27.66,21.09 z" /><path
         id="path26"
         style="fill:#000000;fill-opacity:1;fill-rule:nonzero;stroke:none"
         d="m 1271.02,361.52 c -2,-8.668 -3.36,-17.5 -4.07,-26.559 -0.62,-8.981 -0.93,-18.59 -0.93,-28.91 -2.74,-1.051 -5.59,-1.051 -8.6,0 -4.61,5.629 -8.4,9.769 -11.4,12.5 -7,5.937 -15,8.91 -24.07,8.91 -7.61,0 -15.86,-3.512 -24.68,-10.473 -8.87,-6.988 -14.81,-14.797 -17.82,-23.437 V 164.488 c 0,-5.308 4.42,-8.976 13.28,-10.937 8.83,-1.992 18.13,-2.961 27.82,-2.961 3.63,0 5.78,0 6.4,0 0.32,0 0.67,0 1.1,0 v -11.57 h -131.57 v 11.57 c 8.95,0 15.63,0.148 20,0.461 13.32,1.648 20,5.828 20,12.5 v 166.41 c 0,2.699 -2.5,4.527 -7.5,5.469 -5,1.019 -10.7,1.558 -17.03,1.558 -3.67,0 -7.15,0 -10.47,0 -1.05,0 -2.57,-0.148 -4.53,-0.468 l -0.47,12.5 c 25.32,3.011 51.64,9.851 79.07,20.468 l 3.9,-5 v -49.527 c 8.01,12.379 14.85,21.559 20.47,27.5 17.7,18.32 36.02,27.5 55,27.5 6.33,0 11.72,-2.813 16.1,-8.441 z" /><path
         id="path28"
         style="fill:#000000;fill-opacity:1;fill-rule:nonzero;stroke:none"
         d="m 1560.82,251.988 c 0,-33.359 -13.87,-61.519 -41.56,-84.527 -22.93,-18.981 -44.77,-28.441 -65.47,-28.441 h -155.47 v 13.441 c 4.38,0 7.7,0.199 10,0.629 15,2.262 22.5,7.422 22.5,15.461 v 290 c -12.3,5.629 -25.47,8.437 -39.53,8.437 v 12.973 h 181.09 c 20.32,0 37.42,-6.371 51.41,-19.063 14.06,-12.617 21.09,-28.398 21.09,-47.347 0,-18.352 -8.43,-36.481 -25.31,-54.371 -16.87,-17.809 -34.96,-26.719 -54.22,-26.719 28.32,0 50.67,-5.859 67.03,-17.5 18.95,-13.672 28.44,-34.652 28.44,-62.973 z m -60.47,154.063 c 0,14.258 -4.33,26.758 -12.97,37.5 -9.68,11.961 -21.87,17.969 -36.56,17.969 h -70.47 V 336.988 h 62.5 c 15,0 28.32,7.352 40,22.032 11.64,14.691 17.5,30.359 17.5,47.031 z m 11.41,-167.5 c 0,20.629 -4.65,38.437 -13.91,53.437 -10.74,16.961 -25.08,25.473 -42.97,25.473 h -74.53 V 160.59 c 14.69,-3.051 29.85,-4.539 45.47,-4.539 23.32,0 43.16,7.347 59.53,22.039 17.58,15.621 26.41,35.781 26.41,60.461 z" /><path
         id="path30"
         style="fill:#000000;fill-opacity:1;fill-rule:nonzero;stroke:none"
         d="m 1770.04,361.52 c -1.99,-8.668 -3.36,-17.5 -4.06,-26.559 -0.63,-8.981 -0.94,-18.59 -0.94,-28.91 -2.74,-1.051 -5.59,-1.051 -8.59,0 -4.61,5.629 -8.4,9.769 -11.41,12.5 -6.99,5.937 -15,8.91 -24.06,8.91 -7.62,0 -15.86,-3.512 -24.69,-10.473 -8.87,-6.988 -14.81,-14.797 -17.81,-23.437 V 164.488 c 0,-5.308 4.41,-8.976 13.28,-10.937 8.83,-1.992 18.12,-2.961 27.81,-2.961 3.63,0 5.78,0 6.41,0 0.31,0 0.66,0 1.09,0 v -11.57 h -131.56 v 11.57 c 8.94,0 15.62,0.148 20,0.461 13.32,1.648 20,5.828 20,12.5 v 166.41 c 0,2.699 -2.5,4.527 -7.5,5.469 -5,1.019 -10.71,1.558 -17.03,1.558 -3.68,0 -7.15,0 -10.47,0 -1.06,0 -2.58,-0.148 -4.53,-0.468 l -0.47,12.5 c 25.31,3.011 51.64,9.851 79.06,20.468 l 3.91,-5 v -49.527 c 8,12.379 14.84,21.559 20.47,27.5 17.69,18.32 36.01,27.5 55,27.5 6.32,0 11.71,-2.813 16.09,-8.441 z" /><path
         id="path32"
         style="fill:#000000;fill-opacity:1;fill-rule:nonzero;stroke:none"
         d="m 1916.88,371.52 c 33.94,0 61.44,-9.84 82.5,-29.532 23.32,-21.988 35,-53.277 35,-93.898 0,-29.379 -10.16,-55.59 -30.47,-78.602 -22.74,-25.617 -51.72,-38.437 -87.03,-38.437 -38.05,0 -67.9,12.66 -89.54,37.969 -18.67,21.64 -27.96,48.011 -27.96,79.07 0,41.25 11.28,72.531 33.9,93.898 20.7,19.692 48.6,29.532 83.6,29.532 z m 73.9,-123.43 c 0,25.621 -5.86,48.75 -17.5,69.371 -13.98,25 -32.77,37.5 -56.4,37.5 -22.74,0 -41.06,-12.301 -55,-36.871 -12.43,-21.68 -18.6,-45 -18.6,-70 0,-35.43 7.03,-61.641 21.1,-78.602 12.57,-15.308 30.07,-22.968 52.5,-22.968 22.26,0 39.76,7.5 52.5,22.5 14.25,16.96 21.4,43.32 21.4,79.07 z" /><path
         id="path34"
         style="fill:#000000;fill-opacity:1;fill-rule:nonzero;stroke:none"
         d="m 2193.24,371.52 c 33.95,0 61.45,-9.84 82.5,-29.532 23.32,-21.988 35,-53.277 35,-93.898 0,-29.379 -10.15,-55.59 -30.47,-78.602 -22.73,-25.617 -51.72,-38.437 -87.03,-38.437 -38.04,0 -67.89,12.66 -89.53,37.969 -18.67,21.64 -27.97,48.011 -27.97,79.07 0,41.25 11.29,72.531 33.91,93.898 20.7,19.692 48.59,29.532 83.59,29.532 z m 73.91,-123.43 c 0,25.621 -5.86,48.75 -17.5,69.371 -13.99,25 -32.77,37.5 -56.41,37.5 -22.73,0 -41.05,-12.301 -55,-36.871 -12.42,-21.68 -18.59,-45 -18.59,-70 0,-35.43 7.03,-61.641 21.09,-78.602 12.58,-15.308 30.08,-22.968 52.5,-22.968 22.27,0 39.77,7.5 52.5,22.5 14.26,16.96 21.41,43.32 21.41,79.07 z" /><path
         id="path36"
         style="fill:#000000;fill-opacity:1;fill-rule:nonzero;stroke:none"
         d="m 2602.11,159.488 v -10 l -46.09,-14.527 -126.88,122.027 -5.62,-0.937 V 166.52 c 0,-6.989 6.64,-11.829 20,-14.532 4.37,-0.617 11.01,-1.09 20,-1.398 v -11.57 h -121.88 v 12.5 c 9.26,0.628 16.09,1.289 20.47,2.031 13.63,2.578 20.47,6.609 20.47,12.039 v 277.961 c 0,8.328 -2.78,14.57 -8.28,18.75 -5.55,4.148 -12.27,6.25 -20.16,6.25 -3.75,0 -7.62,-0.539 -11.56,-1.563 v 12.032 c 13.32,1.332 26.91,3.48 40.78,6.41 13.83,3.011 27.23,6.718 40.16,11.09 V 271.988 l 111.09,92.5 h 47.97 V 353.09 c -6.06,0 -11.02,-0.43 -14.85,-1.25 -3.75,-0.86 -7.65,-2.781 -11.71,-5.789 l -89.38,-67.5 116.88,-112.031 c 4.68,-4.68 10.86,-7.032 18.59,-7.032 z" /><path
         id="path38"
         style="fill:#000000;fill-opacity:1;fill-rule:nonzero;stroke:none"
         d="m 3021.25,479.961 -6.09,-72.5 h -13.44 c 0,14.379 -1.02,25.551 -2.97,33.59 -3.36,13.008 -8.87,19.539 -16.56,19.539 h -112.5 V 326.52 l 4.06,-2.969 h 84.53 c 8.32,0 14.77,7.109 19.38,21.41 1.32,4.687 2.85,11.879 4.53,21.559 h 12.5 V 259.961 h -13.44 c 0,11.641 -1.68,21.328 -5,29.059 -4.37,10 -10.9,15 -19.53,15 h -82.97 l -4.06,-2.032 v -132.5 c 0,-6.679 5,-11.519 15,-14.527 6.95,-1.992 15.47,-2.973 25.47,-2.973 2.38,0 4.88,0 7.5,0 0.39,0 0.78,0.16 1.09,0.473 V 139.02 h -142.97 v 13.441 c 2.89,0 5.2,0 6.88,0 10,0 18,0.82 24.06,2.5 10,2.699 15,7.539 15,14.527 v 277.973 c 0,4.687 -1.95,9.098 -5.78,13.277 -3.87,4.141 -8.44,6.25 -13.75,6.25 h -27.5 v 12.973 z" /><path
         id="path40"
         style="fill:#000000;fill-opacity:1;fill-rule:nonzero;stroke:none"
         d="m 3271.05,150.59 v -11.57 h -72.5 v 40.941 c -14.29,-13.359 -25.93,-22.973 -35,-28.91 -14.68,-9.68 -28.51,-14.531 -41.4,-14.531 -18.75,0 -34.14,4.14 -46.1,12.5 -13.67,9.378 -20.46,23.21 -20.46,41.57 0,22.57 7.65,40.699 22.96,54.371 12.39,11.019 30.55,19.57 54.54,25.629 13.32,3.32 35.15,6.949 65.46,10.93 v 27.5 c 0,7.269 -5.85,15.082 -17.5,23.441 -13.35,9.687 -27.5,14.527 -42.5,14.527 -14.29,0 -25.58,-4.019 -33.9,-12.027 -7.11,-6.68 -12.46,-16.68 -16.1,-30 l -13.9,3.129 1.87,28.898 c 11.33,7.391 20.51,12.891 27.5,16.563 21.64,11.328 39.85,17.039 54.53,17.039 20.71,0 39.15,-5.629 55.32,-16.879 16.13,-11.172 24.22,-22.891 24.22,-35.16 V 174.02 c 0,-6.989 1.95,-12.301 5.93,-15.93 5.39,-5 14.42,-7.5 27.03,-7.5 z m -78.9,40.461 c 1.25,1.961 2.58,4.109 4.06,6.41 1.56,2.379 2.34,5.078 2.34,8.129 v 57.5 c -25,0 -46.99,-4.852 -65.93,-14.539 -23.05,-11.672 -34.53,-28.039 -34.53,-49.063 0,-9.289 3.79,-17.769 11.4,-25.468 7.7,-7.731 16.41,-11.559 26.1,-11.559 10,0 19.61,2.5 28.9,7.5 9.38,5 18.6,12.027 27.66,21.09 z" /><path
         id="path42"
         style="fill:#000000;fill-opacity:1;fill-rule:nonzero;stroke:none"
         d="m 3473.16,361.52 c -1.99,-8.668 -3.36,-17.5 -4.06,-26.559 -0.62,-8.981 -0.94,-18.59 -0.94,-28.91 -2.73,-1.051 -5.58,-1.051 -8.59,0 -4.61,5.629 -8.4,9.769 -11.41,12.5 -6.99,5.937 -15,8.91 -24.06,8.91 -7.62,0 -15.86,-3.512 -24.69,-10.473 -8.86,-6.988 -14.8,-14.797 -17.81,-23.437 V 164.488 c 0,-5.308 4.42,-8.976 13.28,-10.937 8.83,-1.992 18.13,-2.961 27.82,-2.961 3.63,0 5.78,0 6.4,0 0.31,0 0.67,0 1.1,0 v -11.57 h -131.57 v 11.57 c 8.95,0 15.63,0.148 20,0.461 13.32,1.648 20,5.828 20,12.5 v 166.41 c 0,2.699 -2.5,4.527 -7.5,5.469 -5,1.019 -10.7,1.558 -17.03,1.558 -3.67,0 -7.15,0 -10.47,0 -1.05,0 -2.58,-0.148 -4.53,-0.468 l -0.47,12.5 c 25.32,3.011 51.64,9.851 79.07,20.468 l 3.9,-5 v -49.527 c 8.01,12.379 14.85,21.559 20.47,27.5 17.7,18.32 36.02,27.5 55,27.5 6.33,0 11.72,-2.813 16.09,-8.441 z" /><path
         id="path44"
         style="fill:#000000;fill-opacity:1;fill-rule:nonzero;stroke:none"
         d="m 3910.47,150.59 v -11.57 h -80 v 142.5 c 0,16.019 -5.12,29.929 -15.31,41.718 -10.12,11.883 -22.82,17.813 -38.13,17.813 -14.06,0 -26.48,-4.289 -37.19,-12.813 -10.62,-8.437 -15.93,-19.328 -15.93,-32.648 V 168.551 c 0,-8.039 5.82,-13.391 17.5,-16.09 3.75,-0.621 9.76,-1.25 18.12,-1.871 v -11.57 h -117.5 v 11.57 c 10.63,0 19.26,0.969 25.94,2.961 10,3.008 15,8.168 15,15.469 v 113.441 c 0,17.379 -4.96,31.488 -14.85,42.34 -9.8,10.82 -22.5,16.25 -38.12,16.25 -12.73,0 -24.53,-3.86 -35.47,-11.563 C 3581.48,320.512 3575,309.219 3575,295.59 V 171.051 c 0,-6.36 4.06,-11.36 12.19,-15 8.2,-3.672 17.5,-5.461 27.81,-5.461 v -11.57 h -120.47 v 11.57 c 8.63,1.25 14.92,2.531 18.91,3.898 13.01,4.063 19.53,9.422 19.53,16.102 v 151.871 c 0,4.059 -1.25,7.5 -3.75,10.309 -2.5,2.82 -5.94,4.218 -10.31,4.218 h -24.38 v 12.973 c 26.95,4.059 53.79,10.551 80.47,19.527 v -42.027 c 9.26,9.687 17.07,16.879 23.44,21.559 19.06,14.378 37.22,21.57 54.53,21.57 14.37,0 27.54,-4.18 39.53,-12.5 10.31,-7.43 19.61,-17.93 27.97,-31.57 13.01,13.32 25.19,23.48 36.56,30.468 15,9.383 29.3,14.063 42.97,14.063 14.69,0 30.08,-6.641 46.25,-19.84 16.13,-13.121 24.22,-25.551 24.22,-37.191 V 171.051 c 0,-7.422 4.69,-12.93 14.06,-16.563 6.95,-2.609 15.63,-3.898 25.94,-3.898 z" /></g></g></svg>