<?xml version="1.0" encoding="UTF-8" standalone="no"?>
<svg
   xmlns:dc="http://purl.org/dc/elements/1.1/"
   xmlns:cc="http://creativecommons.org/ns#"
   xmlns:rdf="http://www.w3.org/1999/02/22-rdf-syntax-ns#"
   xmlns:svg="http://www.w3.org/2000/svg"
   xmlns="http://www.w3.org/2000/svg"
   viewBox="0 0 369.33334 372"
   height="54"
   width="224"
   xml:space="preserve"
   id="svg2"
   version="1.1"><metadata
     id="metadata8"><rdf:RDF><cc:Work
         rdf:about=""><dc:format>image/svg+xml</dc:format><dc:type
           rdf:resource="http://purl.org/dc/dcmitype/StillImage" /></cc:Work></rdf:RDF></metadata><defs
     id="defs6" /><g
     transform="matrix(1.3333333,0,0,-1.3333333,0,372)"
     id="g10"><g
       transform="scale(0.1)"
       id="g12"><path
         id="path14"
         style="fill:#1e1e1e;fill-opacity:1;fill-rule:evenodd;stroke:none"
         d="m 1852.38,95.8594 c 17.42,8.6716 35.74,17.3786 54.96,26.0896 19.61,8.75 35.94,18.672 49.03,29.961 -6.53,-5.07 -14.69,-10 -24.49,-14.719 -9.81,-5.043 -19.81,-9.961 -29.97,-14.652 -10.15,-4.73 -19.8,-9.449 -28.82,-14.18 -8.75,-4.339 -15.63,-8.5582 -20.71,-12.4996 M 720.352,2574.92 c 1.839,4.34 6.019,8.91 12.539,13.63 6.519,5.04 11.058,9.61 13.629,13.6 -6.911,-3.63 -11.829,-7.07 -14.719,-10.35 -2.539,-3.25 -7.621,-6.72 -15.242,-10.32 2.89,-0.74 3.05,-2.57 0.55,-5.46 -2.929,-2.93 -1.839,-3.25 3.243,-1.1 m 110,55 21.25,8.71 c 14.527,5.78 29.218,11.8 44.097,17.97 15.59,5.43 31.762,11.29 48.442,17.42 -11.211,0.75 -25.551,-2.93 -43.012,-10.86 -8.32,-3.67 -16.328,-7.11 -23.938,-10.39 -8.011,-3.63 -14.89,-5.97 -20.711,-7.07 -3.98,-2.15 -7.46,-4.53 -10.351,-7.07 -3.277,-2.18 -7.07,-4.53 -11.438,-7.07 -1.453,0.71 -7.421,-0.74 -17.929,-4.37 -10.203,-3.64 -20.711,-8.17 -31.563,-13.6 -10.551,-5.11 -17.469,-9.61 -20.75,-13.63 15.281,7.27 30.121,13.99 44.692,20.16 6.879,3.24 13.949,6.52 21.211,9.8 M 2586.91,1758.16 c -0.74,4.03 -2.53,10 -5.43,17.97 -2.93,7.66 -6.56,15.43 -10.89,23.44 -4.38,8.01 -8.91,14.34 -13.64,19.06 -4.72,4.73 -8.71,5.78 -11.99,3.28 4.02,-5.82 7.62,-12.89 10.9,-21.29 3.28,-8.67 6.17,-17.77 8.71,-27.22 2.19,-9.06 4.57,-17.38 7.07,-25 2.54,-7.66 5.12,-13.28 7.66,-16.88 5.43,-5.86 8.51,-4.92 9.22,2.7 0.74,7.62 0.19,15.62 -1.61,23.94 m -4.37,-204.72 c 0.39,-10.51 -0.35,-19.61 -2.19,-27.23 -1.8,1.09 -3.05,3.83 -3.79,8.17 -1.09,4.72 -2.54,7.61 -4.37,8.71 1.44,-6.88 1.68,-11.41 0.54,-13.6 -1.83,4.73 -2.89,4.53 -3.28,-0.54 4.73,-8.36 9.46,-9.46 14.18,-3.29 4.73,6.18 4.34,15.43 -1.09,27.78 M 2372.89,711.129 C 2317.38,626.91 2252.38,551.02 2177.97,483.52 c 19.26,5.07 38.67,10.539 58.28,16.32 10.51,3.281 21.25,6.879 32.15,10.898 11.21,3.992 22.3,8.711 33.2,14.141 9.77,10.512 16.68,18.359 20.67,23.402 3.63,5.117 7.07,10.551 10.35,16.328 2.89,5.473 8.71,14.18 17.42,26.172 3.28,8.008 5.27,15.391 6.01,22.34 0.71,7.231 1.25,14.5 1.61,21.758 0,13.793 5.07,28.48 15.23,44.101 -2.15,9.418 -2.15,20.161 0,32.149 M 384.961,2047.3 c 3.238,2.9 6.519,5.47 9.809,7.62 2.14,3.63 4.531,7.07 7.07,10.35 0,3.64 -0.75,6.18 -2.192,7.62 -1.449,1.84 -4.339,1.09 -8.707,-2.19 -6.921,-11.21 -8.91,-19.06 -5.98,-23.4 m 17.969,31.02 c 2.539,-1.05 5.429,-0.9 8.711,0.55 10.507,13.79 21.25,27.61 32.109,41.4 -1.449,4.34 -1.09,9.61 1.129,15.78 8.32,4.73 12.312,4.73 11.961,0 59.531,71.53 126.68,135.24 201.441,191.14 -5.781,-2.58 -11.601,-4.89 -17.383,-7.07 -10.199,-4.38 -20,-9.26 -29.449,-14.73 -9.379,-5.43 -17.578,-12.34 -24.5,-20.66 2.93,2.5 5.672,4.72 8.172,6.52 2.539,1.8 3.981,1.64 4.367,-0.59 -13.437,-9.37 -26.168,-18.67 -38.117,-27.73 -11.992,-9.1 -23.051,-20.16 -33.211,-33.2 -10.5,-7.27 -22.34,-17.27 -35.39,-29.96 -13.43,-12.35 -26.321,-26.14 -38.668,-41.37 -12.692,-15.24 -23.551,-29.96 -32.653,-44.14 -8.75,-14.49 -14.89,-26.49 -18.519,-35.94 m 537.929,406.21 c 75.901,29.38 155.041,51.02 237.421,64.77 7.27,3.28 15.27,5.47 23.95,6.56 18.9,2.89 35.62,4.73 50.11,5.47 7.62,0.35 14.89,0.35 21.8,0 33.05,2.89 66.45,4.33 100.16,4.33 59.57,0 118,-4.33 175.35,-13.08 -82.77,25.78 -170.47,35.97 -263.01,30.51 -94.02,-6.18 -188.05,-23.4 -282.03,-51.72 -15.981,-10.9 -32.501,-22.5 -49.571,-34.85 -5.43,-4.37 -10.16,-8.32 -14.18,-11.99 m 840.191,102.89 c 47.9,-20.27 92.9,-41.17 135,-62.62 42.15,-21.05 82.43,-42.81 120.9,-65.31 76.6,-43.9 150.08,-93.47 220.55,-148.63 2.89,-1.13 5.27,-1.13 7.07,0 1.8,1.09 4.88,-0.2 9.26,-3.83 13.44,-13.08 25.04,-22.3 34.84,-27.73 9.06,-6.18 18.52,-14.57 28.32,-25.08 5.08,-6.56 9.06,-13.28 11.96,-20.16 3.28,-7.22 7.46,-14.88 12.53,-22.85 3.64,-4.37 7.97,-8.71 13.09,-13.09 4.73,-4.72 7.23,-9.25 7.62,-13.63 3.24,20 -5.47,43.95 -26.14,71.92 -9.84,13.79 -21.44,27.93 -34.88,42.42 -13.4,13.83 -27.58,27.97 -42.46,42.5 -28.32,26.52 -54.26,50.31 -77.85,71.37 -23.59,21.05 -48.98,40.97 -76.21,59.88 -22.5,9.76 -44.1,20.12 -64.85,31.01 -20.66,11.25 -41.71,22.5 -63.12,33.75 -21.06,11.64 -43.4,22.86 -66.99,33.75 -11.96,5.43 -24.34,10.9 -36.99,16.33 -12.74,4.73 -25.98,9.3 -39.81,13.63 -0.7,-6.52 -4.14,-10.35 -10.31,-11.4 -5.78,-0.74 -12.89,-0.55 -21.25,0.51 -8.32,1.09 -16.33,1.64 -23.95,1.64 -7.26,0.35 -12.69,-1.1 -16.33,-4.38 m 141.57,27.23 c 7.22,-7.23 18.12,-14.49 32.69,-21.76 14.49,-7.62 30.47,-15.62 47.89,-23.94 8.71,-4.03 17.42,-8.21 26.14,-12.54 8.36,-4.38 16.52,-8.71 24.53,-13.05 16.33,-8.4 30.11,-16.56 41.33,-24.49 8,-6.96 15.82,-13.83 23.43,-20.75 7.62,-6.87 18.13,-14.64 31.57,-23.39 3.28,-3.64 5.27,-6.88 6.01,-9.81 0.7,-2.89 4.18,-6.52 10.31,-10.9 9.85,-1.79 21.45,-6.87 34.85,-15.23 13.43,-7.97 27.22,-16.88 41.4,-26.68 13.79,-9.81 26.33,-17.97 37.58,-24.49 11.6,-6.17 20.86,-8.32 27.77,-6.53 -5.07,10.16 -14.92,21.06 -29.41,32.66 -14.14,11.6 -29.06,24.34 -44.65,38.13 -7.61,7.96 -15.23,16.48 -22.85,25.58 -7.26,8.71 -15.08,16.68 -23.44,23.95 -19.96,17.07 -38.47,30.86 -55.5,41.4 -8.72,5.43 -16.92,10.31 -24.54,14.69 -7.96,3.98 -15.58,7.66 -22.85,10.86 -14.53,5.86 -28.32,10.19 -41.4,13.12 -13.05,2.5 -26.14,3.95 -39.18,4.34 -13.79,9.06 -27.39,14.34 -40.82,15.78 -13.44,1.45 -27.07,5.82 -40.86,13.05 m 465,-510.16 3.83,3.28 c -5.83,9.77 -10.9,17.78 -15.28,23.95 -4.33,5.78 -10.7,12.5 -19.06,20.12 -2.54,-4.34 0,-11.41 7.62,-21.22 7.65,-9.45 15.27,-18.12 22.89,-26.13 m -37.58,53.32 c 1.8,2.19 4.53,2.58 8.16,1.14 -6.13,8.32 -10.86,12.14 -14.14,11.44 -2.89,-0.74 -0.9,-4.96 5.98,-12.58 m -11.99,-23.94 c -13.44,19.61 -27.03,38.86 -40.82,57.73 -18.52,10.51 -39.18,25.24 -62.07,44.1 -22.5,18.52 -44.46,33.6 -65.9,45.2 14.18,-14.49 31.05,-28.52 50.66,-41.95 9.81,-6.88 19.57,-14.11 29.42,-21.76 9.76,-7.97 19.21,-16.53 28.28,-25.59 20.31,-21.44 38.67,-43.71 55,-66.99 15.97,-23.24 29.96,-46.06 41.95,-68.56 3.98,2.5 5.04,7.04 3.24,13.6 -1.79,6.17 -1.99,11.4 -0.54,15.78 -12.7,12.34 -25.79,28.52 -39.22,48.44 m -180.24,154.1 c -4.33,4.73 -9.61,9.65 -15.78,14.73 -6.17,5.42 -11.05,7.26 -14.65,5.42 7.58,-5.07 13.4,-9.29 17.39,-12.5 3.67,-3.28 8,-5.82 13.04,-7.65 M 1643.83,297.301 c -3.63,0.75 -6.02,0.508 -7.07,-0.539 -0.71,-0.711 -3.44,-1.641 -8.17,-2.742 0.36,-3.239 3.29,-4.372 8.71,-3.239 5.79,1.449 7.97,3.598 6.53,6.52 M 353.91,1831.68 c -65.32,-142.3 -98.558,-296.37 -99.609,-462.27 0.347,-97.65 12.34,-191.68 35.898,-282.07 23.59,-90.738 57.571,-176.012 101.832,-255.891 -2.152,13.43 -5.269,26.871 -9.261,40.313 -6.911,19.957 -14.329,39.566 -22.301,58.789 -7.66,18.859 -15.078,37.73 -22.348,56.597 -3.633,9.454 -7.262,18.902 -10.851,28.362 -3.29,9.41 -6.18,18.87 -8.75,28.28 -2.899,9.45 -5.59,18.71 -8.168,27.77 -2.153,9.46 -3.981,18.87 -5.43,28.32 -9.063,26.53 -17.621,54.3 -25.621,83.28 -7.621,29.07 -11.762,59.38 -12.5,90.98 -3.602,5.78 -6.18,13.79 -7.621,23.95 -1.45,10.5 -2.379,21.95 -2.7,34.29 0,12 0.711,23.75 2.149,35.39 1.101,11.25 2.191,20.86 3.281,28.87 -1.441,20.35 -1.68,42.11 -0.539,65.35 1.438,11.21 2.688,22.85 3.828,34.85 1.051,11.6 2.692,23.2 4.879,34.84 1.801,11.6 3.793,23.2 6.012,34.8 2.5,11.29 5.039,22.5 7.582,33.79 2.578,10.9 5.078,21.8 7.617,32.66 2.891,10.51 5.621,20.7 8.199,30.51 6.883,27.58 14.891,55.74 23.953,84.41 9.098,28.28 19.758,56.06 32.11,83.28 -0.352,0.39 -0.903,0.55 -1.641,0.55 m 2130.62,-312.54 c -6.17,-2.89 -12.34,-5.59 -18.51,-8.16 -6.53,-2.54 -13.05,-3.99 -19.61,-4.38 -7.23,-15.62 -15.63,-21.21 -25,-16.83 -9.11,4.72 -18.75,11.4 -28.91,20.11 -8.71,18.52 -14.34,40.82 -16.88,67 -2.89,26.52 -4.53,49.17 -4.88,68.08 1.45,1.76 2.54,3.95 3.24,6.49 0.75,2.53 2.35,3.82 4.93,3.82 2.14,3.28 2.69,8.17 1.64,14.69 -0.71,6.56 -1.1,12.54 -1.1,17.97 9.07,7.27 15.43,18.36 19.07,33.24 2.89,14.14 7.07,28.28 12.5,42.46 -6.92,30.51 -17.23,60.28 -31.02,89.3 -13.44,29.02 -29.38,56.6 -47.93,82.77 -18.52,26.49 -38.28,51.33 -59.34,74.57 -21.4,23.6 -42.85,45.94 -64.25,67 -1.45,5.43 -4.89,10.7 -10.32,15.78 -5.86,4.72 -9.29,9.61 -10.39,14.72 -13.79,11.96 -28.28,24.65 -43.55,38.09 -7.62,6.52 -15.24,13.24 -22.85,20.16 -7.62,6.52 -15.28,13.04 -22.89,19.6 -15.24,13.76 -29.96,26.84 -44.1,39.22 -13.79,13.05 -26.14,25 -37.04,35.9 -8.71,5.43 -16.32,8.71 -22.89,9.81 -5.04,3.63 -8.86,7.22 -11.36,10.9 -2.23,3.28 -5.12,6.71 -8.75,10.35 -7.62,4.72 -14.89,9.25 -21.76,13.59 -6.56,4.02 -12.89,8.01 -19.06,11.99 -12,7.97 -23.79,15.63 -35.4,22.85 -9.84,12 -24.88,23.95 -45.23,35.94 -20.27,12.35 -40.82,23.24 -61.48,32.7 -10.51,4.33 -21.25,8.55 -32.15,12.5 -11.6,2.93 -23.95,6.17 -37.03,9.8 -16.68,4.73 -33.91,9.06 -51.72,13.09 -3.99,1.09 -8.17,1.99 -12.5,2.69 -4.38,0.75 -8.56,1.45 -12.54,2.19 -8.71,1.45 -16.88,2.54 -24.49,3.28 -7.66,0.7 -14.89,0.9 -21.76,0.55 -6.56,-0.39 -12.74,-1.09 -18.56,-2.19 -12.69,2.89 -24.84,5.24 -36.44,7.07 -11.64,1.1 -22.89,1.99 -33.79,2.74 -20.66,1.09 -39.92,0.54 -57.73,-1.64 -17.39,-1.8 -34.11,-4.38 -50.08,-7.66 -15.59,-3.2 -31.21,-6.49 -46.84,-9.77 -19.92,1.84 -40.43,0.39 -61.48,-4.33 -9.85,-2.23 -19.46,-3.99 -28.91,-5.43 -9.06,-2.23 -17.38,-3.48 -25.04,-3.87 -2.19,-0.35 -3.24,-1.09 -3.24,-2.15 0,-1.09 0,-2.19 0,-3.28 -24.73,-4.73 -48.83,-9.45 -72.42,-14.18 -23.6,-4.33 -47.19,-10.16 -70.82,-17.38 -36.25,-4.38 -72.23,-9.81 -107.78,-16.33 -21.442,-5.12 -42.11,-11.6 -62.07,-19.61 -9.801,-3.98 -19.61,-8.16 -29.411,-12.54 -9.41,-4.72 -18.871,-9.41 -28.32,-14.14 -36.641,-20.31 -71.719,-40.82 -105.117,-61.56 -8.672,-10.51 -20.121,-19.38 -34.262,-26.64 -14.18,-6.92 -28.859,-15.08 -44.14,-24.53 -4.68,-3.28 -9.411,-6.53 -14.141,-9.77 -4.719,-3.28 -9.25,-6.95 -13.629,-10.9 -9.059,-7.65 -17.77,-15.11 -26.09,-22.34 -16.371,-15.59 -31.41,-27.58 -45.199,-35.94 -8.012,-11.29 -17.422,-23.94 -28.32,-38.12 -10.512,-14.14 -21.602,-28.83 -33.243,-44.1 -11.207,-15.24 -22.5,-29.77 -33.707,-43.56 -10.16,-14.18 -20,-26.13 -29.461,-35.94 -4.332,-8.36 -8.32,-15.78 -11.949,-22.3 -3.98,-6.56 -7.109,-13.99 -9.261,-22.35 -5.782,-9.41 -11.598,-19.41 -17.418,-29.92 -5.821,-10.54 -11.602,-21.25 -17.422,-32.11 -11.289,-21.79 -22.149,-44.29 -32.66,-67.58 -10.192,-23.2 -19.801,-46.99 -28.86,-71.28 -4.379,-12.39 -8.558,-24.89 -12.539,-37.62 -2.191,-5.78 -4.34,-11.95 -6.531,-18.48 l -4.918,-18.51 c -14.492,-50.82 -25,-101.45 -31.563,-151.92 -6.558,-50.11 -9.449,-97.85 -8.711,-143.2 -0.347,-8.36 0,-16.37 1.09,-23.99 1.063,-7.57 2.192,-15.19 3.282,-22.81 0.71,-7.3 1.25,-14.72 1.601,-22.34 0.75,-7.62 0.75,-15.43 0,-23.44 4.34,-11.25 8.559,-24.49 12.5,-39.73 4.027,-15.23 7.859,-31.4 11.449,-48.47 4.41,-16.72 8.008,-33.21 10.899,-49.53 3.672,-16.33 6.562,-31.25 8.711,-44.69 5.082,-13.79 10.511,-27.23 16.371,-40.27 5.429,-13.44 11.597,-25.24 18.469,-35.39 1.14,-11.61 4.031,-22.348 8.75,-32.11 5.039,-9.809 9.769,-19.961 14.14,-30.512 2.192,-5.43 4.34,-10.898 6.531,-16.328 2.18,-5.078 4.368,-10.352 6.559,-15.781 3.98,-10.508 7.77,-21.25 11.41,-32.11 4.371,-10.199 8.512,-20.507 12.539,-31.058 l 11.992,-31.563 c 4.329,-10.187 8.508,-20.508 12.5,-31.047 4.719,-10.203 9.45,-20.351 14.18,-30.511 9.41,-20.309 19.918,-40.27 31.559,-59.879 2.539,-3.25 3.441,-5.469 2.699,-6.531 -0.32,-1.09 -1.059,-2.18 -2.149,-3.282 14.532,-21.047 30.11,-42.457 46.829,-64.218 51.882,-58.122 109.062,-110.391 171.531,-156.829 3.238,-1.8 6.519,-3.48 9.762,-4.921 9.449,-4.731 18.707,-9.258 27.769,-13.598 18.52,-8.012 36.68,-15.781 54.457,-23.402 7.621,-5.43 15.434,-10.391 23.442,-14.719 60.621,-22.5 121.949,-41.961 184.02,-58.281 62.07,-15.938 123.4,-32.661 184.02,-50.079 6.56,-2.152 13.28,-3.832 20.16,-4.89 6.91,-0.391 13.79,-0.93 20.66,-1.641 13.83,-1.441 27.07,-4.019 39.81,-7.609 37.73,0.699 76.95,0 117.61,-2.192 20.28,-1.089 40.43,-1.64 60.4,-1.64 9.84,-0.348 19.45,-0.508 28.9,-0.508 9.77,0.309 19.22,0.699 28.28,1.059 7.66,2.89 15.59,5.109 23.99,6.562 7.97,1.758 16.33,3.277 25,4.328 17.46,1.84 34.68,3.442 51.72,4.891 3.67,-0.75 4.57,-1.602 2.73,-2.742 -2.15,-1.438 -3.79,-3.039 -4.88,-4.879 11.6,6.558 23.59,10.902 35.94,13.05 11.99,2.571 24.49,4.02 37.57,4.411 12.7,0.699 25.78,1.988 39.22,3.75 13.05,1.839 26.1,5.468 39.18,10.898 -0.74,-2.891 0.35,-3.949 3.28,-3.238 2.89,0.347 5.08,0.347 6.53,0 8.71,3.238 16.91,6.359 24.53,9.25 59.49,24.34 116.09,53.168 169.84,86.57 27.93,24.328 55.55,48.277 82.77,71.867 21.41,17.461 41.96,35.043 61.53,52.852 19.26,18.129 37.77,36.449 55.55,54.961 17.42,18.168 33.94,36.488 49.57,55 7.96,9.109 15.58,18.32 22.81,27.781 3.67,4.719 7.3,9.258 10.9,13.59 3.28,4.726 6.56,9.449 9.84,14.18 4.73,7.23 9.22,14.339 13.59,21.207 4.34,7.312 9.96,12.742 16.92,16.371 -10.9,-28.668 -27.62,-58.282 -50.12,-88.75 80.94,97.621 143.71,206.679 188.4,327.23 45,120.86 67.66,249.37 68.05,385.5 0,50.79 -3.29,100.75 -9.81,149.73 m -78.4,553.24 c 1.45,0.32 3.44,-0.74 5.98,-3.28 2.19,-2.19 3.83,-2.19 4.88,0 -3.98,5.43 -6.72,9.77 -8.16,13.05 -1.45,3.63 -4.49,8.36 -9.22,14.18 -0.7,-2.89 0,-6.72 2.19,-11.45 2.15,-4.72 3.59,-8.9 4.33,-12.5 m 17.97,-49.02 c -0.35,-5.43 1.1,-12.15 4.34,-20.16 3.28,-8 7.07,-16.52 11.44,-25.62 4.34,-9.06 8.52,-17.78 12.54,-26.1 3.99,-8.71 6.53,-16.32 7.58,-22.89 3.67,-2.89 6.95,-2.89 9.84,0 -5.43,10.9 -10,20.16 -13.59,27.78 -3.67,8.01 -6.76,15.27 -9.3,21.79 -5.04,12.31 -12.65,27.39 -22.85,45.2 m 335.94,-543.98 c -2.89,-21.76 -8.52,-37.19 -16.88,-46.29 2.19,-17.78 0.39,-31.18 -5.46,-40.28 -2.5,8.01 -4.89,12.35 -7.04,13.05 -1.83,0.74 -4.02,0.59 -6.56,-0.51 -2.19,-1.09 -5.23,-0.55 -9.22,1.64 -1.13,6.88 -1.68,11.99 -1.68,15.24 0.39,3.63 0.94,8.36 1.68,14.14 -5.86,9.45 -12.18,15.62 -19.06,18.51 -6.91,2.54 -14.18,5.67 -21.8,9.26 -7.61,4.02 -14.88,12.34 -21.75,25.08 -2.58,11.95 -5.47,21.6 -8.75,28.83 -3.6,7.61 -7.04,15.78 -10.32,24.49 -3.28,9.1 -6.17,21.44 -8.75,37.07 -3.24,-2.58 -4.14,-9.1 -2.69,-19.61 1.83,-10.9 3.28,-21.6 4.33,-32.11 -2.18,-1.13 -3.63,-2.38 -4.33,-3.83 -1.14,-1.83 -2.58,-0.9 -4.34,2.7 -2.22,-20.31 -6.01,-36.29 -11.44,-47.89 -5.47,-11.6 -10.36,-23.99 -14.73,-37.03 -8.71,-3.64 -16.33,-3.79 -22.85,-0.59 1.44,-23.95 2.19,-47.89 2.19,-71.84 0,-10.15 0,-20.15 0,-29.96 1.05,2.89 2.14,5.63 3.28,8.21 5.43,-2.93 7.77,-8.75 7.03,-17.46 -0.35,-8.72 -1.25,-17.62 -2.7,-26.68 -1.13,-8.72 0,-14.73 3.28,-17.93 -0.74,-4.38 -1.83,-7.66 -3.28,-9.85 -1.13,-2.54 -2.18,-5.04 -3.28,-7.62 -2.19,-50.42 -11.44,-95.27 -27.77,-134.49 -26.84,-133.2 -73.87,-256.439 -141.02,-369.72 -2.18,-4.691 -4.18,-9.422 -6.01,-14.14 1.48,-4.731 2.22,-11.411 2.22,-20.122 0,-8.359 -3.12,-19.058 -9.29,-32.148 -1.45,-11.602 -3.25,-24.301 -5.43,-38.09 -2.54,-13.121 -5.82,-27.461 -9.81,-43.039 -4.37,-15.633 -10.15,-31.762 -17.42,-48.48 -3.98,-8.321 -8.16,-16.871 -12.5,-25.551 -5.12,-8.391 -10.39,-16.91 -15.82,-25.621 -7.23,-6.52 -14.34,-12.5 -21.25,-17.93 -6.87,-5.117 -13.75,-9.84 -20.66,-14.18 -13.05,-8.32 -25.59,-15.039 -37.54,-20.16 -24.73,-9.801 -48.32,-17.418 -70.82,-22.847 -25.04,-11.25 -49.53,-20.551 -73.48,-27.77 -8.4,-2.543 -16.56,-5.121 -24.53,-7.621 -78.75,-57.731 -163.71,-105.66 -254.84,-143.789 -40.67,-24.652 -81.68,-46.602 -123.05,-65.863 -5.08,0 -12.15,-1.477 -21.25,-4.368 -10.86,-9.769 -25.55,-17.39 -44.1,-22.812 -8.67,-2.969 -17.78,-6.02 -27.23,-9.297 -9.77,-2.543 -19.22,-5.633 -28.28,-9.262 -6.17,-1.441 -9.45,-1.25 -9.84,0.551 -0.71,1.828 -3.6,2.149 -8.68,1.09 -14.88,-7.262 -32.5,-12.691 -52.81,-16.332 -20.35,-3.668 -41.56,-6.168 -63.75,-7.609 -22.11,-1.098 -43.71,-1.84 -64.76,-2.231 -21.06,-0.309 -40.28,-1.598 -57.74,-3.75 -5.43,0.699 -11.05,1.441 -16.84,2.152 -5.46,1.09 -11.09,1.989 -16.87,2.731 -11.29,1.449 -22.54,2.699 -33.79,3.828 -23.24,2.5 -46.29,5.23 -69.14,8.16 -22.5,3.25 -43.94,7.07 -64.26,11.41 -20.35,5.078 -38.47,10.899 -54.45,17.418 -40.66,11.293 -80.391,24.344 -119.258,39.223 -38.473,15.238 -74.922,31.41 -109.454,48.48 -23.558,11.207 -46.597,21.207 -69.097,29.918 -11.289,4.34 -22.5,8.911 -33.789,13.629 -10.903,5.043 -21.602,10.711 -32.114,16.883 -6.558,3.938 -14.726,9.961 -24.488,17.969 -9.851,7.961 -18.359,14.879 -25.629,20.66 -5.043,3.281 -10.511,6.559 -16.332,9.801 -5.429,3.64 -9.961,6.918 -13.59,9.808 -10.898,11.602 -18.359,22.5 -22.339,32.661 -4.34,10.191 -9.258,20.89 -14.692,32.109 -5.816,11.641 -16.168,24.922 -31.058,39.801 -5.04,5.429 -8.508,7.422 -10.348,5.98 -1.801,-1.488 -4.332,-1.101 -7.582,1.051 -5.11,5.469 -10.578,11.449 -16.36,18.008 -5.82,6.519 -11.449,13.051 -16.878,19.57 -11.602,12.731 -18.161,23.441 -19.614,32.152 -15.617,17.071 -30.66,33.75 -45.148,50.079 -7.621,8 -14.93,16.171 -21.801,24.492 -7.269,8.008 -14.18,16.328 -20.699,25.078 -6.918,8.711 -13.641,17.422 -20.121,26.09 -6.168,9.101 -12.188,18.16 -18.008,27.23 -12.34,18.899 -23.242,39.059 -32.66,60.469 -17.071,26.871 -32.301,55.891 -45.742,87.101 -13.789,31.219 -25.93,62.782 -36.438,94.731 -5.473,16.328 -10.75,32.34 -15.82,47.969 -4.731,15.94 -9.813,31.37 -15.242,46.25 -9.45,30.86 -19.61,59.53 -30.508,86.02 -1.789,10.89 -3.781,20.35 -6.012,28.35 -2.148,8.32 -4.141,16.14 -5.937,23.36 -2.231,7.31 -4.223,15.08 -6.012,23.48 -1.84,8.32 -2.891,18.09 -3.289,29.38 -4.332,-13.79 -7.77,-28.87 -10.313,-45.24 -2.886,-16.64 -4.718,-33.9 -5.468,-51.72 6.531,-33.01 11.449,-62.97 14.691,-89.84 3.277,-27.23 6.019,-53.911 8.16,-80.001 1.84,-12.739 3.828,-25.778 6.02,-39.219 0.699,-6.91 1.839,-13.629 3.281,-20.121 1.797,-6.949 3.598,-13.828 5.43,-20.738 3.628,-13.75 8.168,-28.09 13.597,-43.012 5.852,-14.879 12.891,-30.309 21.25,-46.25 l -4.89,-2.18 c 7.269,-11.289 11.992,-22.148 14.14,-32.66 2.582,-10.551 6.371,-21.641 11.449,-33.238 10.903,-18.52 22.692,-34.301 35.391,-47.391 13.402,-12.648 25.742,-24.289 37.031,-34.84 1.09,-8.011 3.09,-16.172 5.981,-24.488 -10.16,4.719 -20.512,13.438 -31.063,26.168 -10.898,12.66 -20.816,24.648 -29.918,35.898 -6.91,7.973 -14.34,17.262 -22.34,27.774 -7.968,10.898 -16.531,27.226 -25.589,48.988 -5.082,12.731 -8.711,25.07 -10.86,37.07 -2.191,12.34 -5.472,24.68 -9.84,36.989 -4.73,11.64 -9.613,23.242 -14.691,34.84 -5.078,11.992 -7.422,21.062 -7.07,27.23 -4.379,9.84 -8.52,18.359 -12.539,25.621 -1.442,9.07 -2.539,17.391 -3.282,25.039 -0.308,7.231 -2.699,17.582 -7.031,31.02 3.281,11.293 4.141,24.691 2.692,40.271 -1.442,16.02 -3.821,33.4 -7.071,52.31 -3.629,18.86 -7.07,37.93 -10.347,57.15 -1.442,9.45 -2.891,18.9 -4.332,28.35 -1.098,9.03 -2,17.93 -2.739,26.65 -1.441,6.56 -1.09,9.8 1.059,9.8 2.219,0 3.469,1.48 3.82,4.37 -1.09,6.88 -2.14,13.79 -3.238,20.67 -1.094,6.91 -2.031,13.79 -2.731,20.74 -1.453,13.4 -2.742,26.64 -3.793,39.73 -1.097,26.09 -1.488,51.72 -1.097,76.76 0.711,25.07 2,49.92 3.828,74.57 0.711,11.99 1.449,24.33 2.152,37.07 1.059,12.34 2.188,24.84 3.278,37.54 2.191,33.08 5.242,66.09 9.222,99.14 3.668,33 12.578,69.84 26.68,110.5 1.488,6.57 3.437,10.36 6.019,11.45 2.141,1.05 4.141,2.34 5.969,3.79 1.141,13.08 3.832,28.16 8.172,45.19 5.078,16.68 9.059,32.15 11.988,46.29 -2.929,-0.7 -6.371,-3.44 -10.347,-8.16 -3.992,-4.38 -7.621,-8.17 -10.903,-11.45 -3.238,-3.28 -5.629,-3.08 -7.07,0.55 4.731,5.78 9.301,10.35 13.633,13.63 4.34,2.89 8.867,6.49 13.598,10.9 4.332,10.51 9.058,20.82 14.179,31.02 4.332,10.15 8.711,20.31 13.039,30.47 8.321,20 16.723,40.11 25.043,60.46 8.75,19.97 17.809,40.12 27.231,60.43 10.187,20.36 21.047,40.47 32.687,60.47 -4.371,1.76 -9.609,-0.54 -15.777,-7.11 -6.172,-6.52 -11.832,-10.15 -16.91,-10.89 2.886,2.18 6.008,5.82 9.258,10.89 3.281,5.43 6.71,10.9 10.351,16.33 -3.641,1.1 -7.82,-0.15 -12.543,-3.79 -4.726,-3.28 -9.609,-7.42 -14.687,-12.54 -2.192,-4.72 -1.481,-6.17 2.187,-4.33 3.281,2.15 4.184,0.7 2.731,-4.38 -7.297,-10.19 -13.789,-17.58 -19.61,-22.3 -5.859,-4.73 -10.738,-5.43 -14.719,-2.23 -5.781,-9.06 -10.671,-16.83 -14.691,-23.4 -4.379,-6.17 -9.258,-9.61 -14.73,-10.31 -9.059,-13.79 -17.028,-27.23 -23.938,-40.31 -6.883,-13.09 -13.441,-25.74 -19.609,-38.09 -11.602,-24.72 -21.961,-48.67 -31.024,-71.91 -4.687,-11.6 -9.258,-23.05 -13.59,-34.26 -4.726,-11.29 -9.257,-22.73 -13.628,-34.34 -4.379,-11.6 -9.1098,-23.24 -14.1489,-34.84 -4.3711,-11.99 -9.293,-24.34 -14.7227,-37.03 -8.0078,-27.19 -16.1679,-56.99 -24.4882,-89.3 -3.6407,-15.62 -7.2305,-30.47 -10.8985,-44.65 -1.8008,-7.26 -3.4414,-14.14 -4.8906,-20.7 -1.832,-6.17 -3.4297,-12.11 -4.8828,-17.97 -0.3867,-16.33 -2.1875,-35.39 -5.4688,-57.15 -2.539,-21.79 -5.6211,-43.75 -9.25,-65.89 -2.5781,9.8 -2.7382,19.06 -0.5507,27.77 2.5429,9.06 4.5312,17.97 5.9804,26.68 4.7227,40.27 10.7422,81.33 18,123.05 6.8789,41.4 16.6797,81.52 29.3789,120.35 6.5235,18.9 13.4414,37.38 20.6602,55.5 7.3125,18.56 16.1717,41.8 26.6837,69.73 1.488,4.34 2.379,8.16 2.738,11.45 0.391,3.63 1.289,7.77 2.731,12.5 12.379,35.23 28.48,70.07 48.48,104.57 20.309,34.1 39.719,68.24 58.238,102.34 -11.597,0.74 -24.687,-7.07 -39.179,-23.4 -23.981,-41.05 -41.95,-75.51 -53.95,-103.44 -11.949,-27.96 -23,-55.58 -33.16,-82.81 -5.82,9.81 -6.4098,23.24 -1.679,40.31 4.73,17.04 11.839,37.54 21.25,61.53 4.73,7.61 9.41,15.08 14.14,22.3 4.731,6.96 9.098,11.99 13.09,15.28 39.219,78.79 84.367,151.01 135.578,216.68 51.531,66.44 113.789,125.23 186.762,176.4 -2.539,-2.89 -2.891,-3.75 -1.09,-2.69 1.828,1.09 3.828,2.54 5.969,4.37 -6.168,-6.17 -12.891,-13.28 -20.11,-21.21 -7.66,-7.69 -14.73,-15.27 -21.25,-22.89 1.09,4.34 5.071,9.77 11.989,16.33 -7.617,-1.84 -14.34,-6.72 -20.16,-14.73 -5.469,-7.97 -11.25,-11.8 -17.418,-11.4 -4.371,-5.12 -5.821,-7.43 -4.371,-7.11 1.48,0 3.281,-0.32 5.429,-1.06 -5.429,-3.67 -10.668,-6.91 -15.789,-9.8 -4.68,-2.93 -11.211,-9.26 -19.609,-19.07 -3.199,-4.33 -5.231,-8.16 -5.93,-11.44 -0.75,-3.24 -1.293,-6.37 -1.68,-9.26 6.559,6.17 11.09,11.25 13.629,15.24 2.539,4.02 6.879,9.1 13.051,15.27 3.668,-0.39 7.649,0.51 11.988,2.73 4.731,2.15 9.61,4.18 14.731,5.94 1.051,2.23 1.789,4.22 2.18,6.02 0.32,1.44 2.351,3.82 5.98,7.11 6.52,6.48 8.672,7.93 6.52,4.33 -1.79,-3.63 -2.731,-6.33 -2.731,-8.16 10.902,7.61 22.152,16.33 33.789,26.09 11.953,9.45 18.32,18.36 19.063,26.72 9.058,3.98 21.211,10.7 36.449,20.12 14.879,9.1 29.211,19.26 43.039,30.5 13.402,11.29 22.312,21.96 26.68,32.11 6.882,2.58 14.339,6.41 22.312,11.45 7.969,4.73 16.68,10.2 26.129,16.33 9.059,6.17 18.672,12.89 28.828,20.19 10.192,6.49 20.551,13.4 31.051,20.67 21.41,14.18 42.699,26.13 63.75,35.93 21.062,10.16 39.73,15.79 56.062,16.88 22.149,11.95 42.848,21.41 62.071,28.32 9.449,3.63 19.058,6.88 28.859,9.8 9.418,2.5 19.418,4.89 29.969,7.08 39.879,17.07 84.02,32.3 132.3,45.74 48.28,13.43 98.56,23.43 150.82,29.92 52.27,6.91 103.63,9.84 154.1,8.75 50.43,-1.49 97.27,-5.86 140.43,-13.09 16.02,1.45 34.34,1.64 55.04,0.55 20.31,-1.8 43.71,-5.43 70.2,-10.86 16.01,-1.52 29.96,-1.84 41.95,-1.13 11.99,0.74 23.24,1.99 33.79,3.83 10.16,1.44 20.66,2.73 31.56,3.79 10.9,1.13 23.05,1.28 36.49,0.54 -1.49,2.58 -4.38,4.92 -8.72,7.07 -4.72,2.23 -9.45,4.38 -14.17,6.56 8.35,0.71 17.07,-1.64 26.13,-7.07 9.1,-5.11 16.87,-7.81 23.44,-8.16 -0.4,3.24 -3.44,6.33 -9.26,9.22 -6.17,3.28 -13.79,6.41 -22.85,9.3 -9.11,3.28 -18.17,6.48 -27.23,9.76 -8.71,3.67 -15.82,7.85 -21.29,12.54 -28.98,7.27 -53.87,14.34 -74.57,21.25 -20.7,5.78 -43.71,10.9 -69.14,15.23 -12.7,1.1 -24.53,0.94 -35.39,-0.54 -11.25,-1.1 -22.5,-1.49 -33.75,-1.1 -15.98,0.75 -30.51,2.35 -43.56,4.93 -13.08,2.54 -26.32,2.89 -39.76,1.09 -3.63,1.05 -5.78,2.73 -6.53,4.88 -0.7,2.19 -3.82,3.64 -9.25,4.34 -12.74,-2.54 -26.84,-3.99 -42.46,-4.34 -15.28,-0.7 -31.61,-1.29 -49.03,-1.64 -34.88,-0.35 -70.58,-3.63 -107.26,-9.8 -37.39,-7.27 -71.88,-16.72 -103.44,-28.32 -31.56,-10.9 -60.31,-22.5 -86.02,-34.85 -4.72,-1.44 -8.55,-2.18 -11.44,-2.18 -2.58,-0.36 -5.47,-0.71 -8.75,-1.1 -10.51,-6.17 -20.161,-10.9 -28.829,-14.1 -9.102,-3.28 -20,-7.66 -32.661,-13.12 1.45,3.28 1.61,5.11 0.508,5.46 -1.047,0.36 -2.34,2 -3.789,4.93 2.153,0 4.18,-0.24 5.981,-0.55 1.8,-0.39 5.082,0.16 9.8,1.6 6.571,1.84 10.36,3.83 11.45,6.02 1.449,2.15 3.59,4.14 6.48,5.97 10.199,0.75 20.2,2.89 29.97,6.53 9.84,3.28 19.6,7.11 29.45,11.44 9.76,4.38 19.57,8.71 29.37,13.05 9.81,3.98 19.61,6.95 29.42,8.71 13.43,10.19 29.76,18.91 48.98,26.17 18.91,6.88 41.02,12.89 66.45,17.97 22.11,3.24 44.06,4.88 65.86,4.88 22.14,-0.35 44.29,-0.54 66.44,-0.54 7.62,0.35 15.63,0.54 23.95,0.54 8,0.39 16.01,0.39 23.94,0 16.72,0.39 33.24,0.55 49.57,0.55 16.72,-0.74 32.85,-1.45 48.44,-2.19 15.63,-0.7 30.35,-2.15 44.14,-4.37 3.24,0 4.88,0.74 4.88,2.22 0.39,1.06 2.39,1.61 5.98,1.61 19.26,0 38.13,-1.61 56.64,-4.89 18.56,-3.28 36.64,-7.46 54.45,-12.54 35.59,-11.95 70.43,-24.84 104.54,-38.63 10.89,-3.98 22.5,-7.66 34.84,-10.9 12.34,-3.63 24.53,-7.42 36.52,-11.44 12.31,-3.64 23.56,-8.17 33.71,-13.6 10.55,-5.47 19.3,-11.99 26.17,-19.61 43.56,-11.28 86.96,-27.22 130.12,-47.89 43.17,-21.05 83.13,-44.84 119.81,-71.36 36.64,-26.49 66.95,-53.71 90.93,-81.68 17.07,-12.7 32.66,-25.43 46.8,-38.09 14.18,-13.09 25.43,-24.88 33.79,-35.39 19.22,-14.18 35.94,-28.36 50.08,-42.5 13.79,-14.53 26.52,-29.02 38.12,-43.55 11.96,-14.54 24.14,-29.77 36.45,-45.75 6.56,-7.61 13.63,-15.62 21.25,-23.94 7.26,-8.36 15.08,-17.07 23.44,-26.13 3.98,-1.49 7.77,-2.7 11.44,-3.83 3.6,-1.1 6.68,-0.9 9.22,0.54 11.29,-14.88 19.61,-28.16 25.08,-39.76 5.82,-11.95 9.61,-22.27 11.4,-31.02 8.01,-7.97 15.79,-17.26 23.4,-27.77 8.01,-10.51 15.78,-21.41 23.44,-32.66 14.88,-23.63 28.48,-42.65 40.86,-57.18 1.8,-8.32 6.87,-19.77 15.23,-34.26 8.32,-14.57 15.59,-26.17 21.76,-34.89 1.84,2.19 2.58,5.43 2.19,9.81 0,4.73 2.38,4.73 7.11,0 2.15,-7.62 1.76,-12.7 -1.13,-15.27 -2.54,-2.15 -4.14,-5.63 -4.89,-10.32 7.62,-10.5 14.34,-22.69 20.12,-36.48 5.47,-14.14 6.17,-23.59 2.23,-28.32 5.78,-13.05 11.05,-26.13 15.78,-39.22 4.33,-13.05 8.16,-25.94 11.44,-38.63 6.88,-25.78 12.5,-51.72 16.84,-77.89 1.09,-6.49 2.23,-13.21 3.28,-20.12 1.09,-6.56 1.99,-13.28 2.74,-20.16 2.14,-13.79 4.14,-27.77 5.97,-41.95 2.19,-14.1 4.18,-29.02 6.02,-44.61 2.15,-14.88 4.33,-30.66 6.48,-47.38 -0.7,-23.95 -2.34,-46.84 -4.88,-68.63 M 2501.41,505.27 c -6.88,0.39 -15.94,-5.43 -27.23,-17.379 3.28,-0.743 7.46,1.211 12.54,5.941 5.47,4.719 10.35,8.547 14.69,11.438 M 2027.7,193.871 c 11.99,7.609 19.21,14.328 21.79,20.109 -7.26,-3.98 -12.19,-7.609 -14.69,-10.89 -2.22,-2.891 -4.57,-5.981 -7.1,-9.219 m -62.62,-37.621 c 7.62,3.98 15.62,8.012 23.94,11.988 8.71,4.344 13.13,8.012 13.13,10.903 -6.95,-5.43 -14.73,-9.762 -23.48,-13.051 -9.02,-3.281 -13.59,-6.559 -13.59,-9.84 m -43.01,-12.5 c -4.73,-1.449 -8.32,-1.988 -10.9,-1.602 -2.54,0.704 -6.87,-0.386 -13.05,-3.277 0.36,-2.582 3.79,-3.281 10.36,-2.191 6.13,1.05 10.7,3.441 13.59,7.07 m -40.82,-27.23 c 3.59,3.281 3.83,5.082 0.55,5.429 -3.28,0.75 -7.62,0.391 -13.09,-1.09 0.35,-2.148 1.25,-3.949 2.74,-5.429 1.79,-1.09 5.07,-0.739 9.8,1.09 m -59.92,-21.2114 c 4.02,1.0625 7.07,2.3125 9.29,3.793 1.76,1.4884 4.73,2.9294 8.68,4.3784 -4.73,-3.281 -5.08,-4.5698 -1.06,-3.8316 3.99,1.0896 8.87,2.6916 14.65,4.8826 5.86,2.539 8.91,4.528 9.3,5.981 -6.57,-2.891 -11.29,-3.992 -14.18,-3.242 0,1.089 0.74,2.179 2.19,3.242 1.09,1.129 1.25,2.187 0.54,3.277 -5.78,-3.59 -12.5,-7.027 -20.12,-10.309 -7.65,-3.281 -15.82,-6.4097 -24.53,-9.3003 -17.42,-6.4805 -35.74,-13.1992 -55,-20.1211 -0.35,-3.6289 1.45,-3.9766 5.47,-1.0898 4.34,2.8906 7.62,3.5898 9.77,2.1523 -4.34,-2.8906 -11.06,-5.5898 -20.12,-8.1719 -9.1,-2.1484 -13.59,-1.4375 -13.59,2.1914 -29.46,-10.5117 -57.74,-18.6718 -84.96,-24.4922 -27.62,-5.7773 -52.66,-13.2382 -75.16,-22.3086 -11.64,2.8907 -23.24,1.6094 -34.84,-3.8203 -11.25,-5.0781 -18.68,-9.80856 -22.35,-14.17966 19.26,2.89063 36.14,6.01176 50.67,9.28906 14.49,3.2813 27.77,6.7227 39.72,10.3203 12.35,3.6328 24.69,7.0703 37.07,10.3516 12.35,3.2812 25.94,6.3594 40.82,9.25 9.07,6.5312 22.31,10.3594 39.73,11.4492 17.46,1.0898 31.25,3.9805 41.41,8.6719 -4.03,1.1289 -4.18,2.5781 -0.55,4.4179 3.59,1.75 9.06,4.1407 16.33,7.0313 7.26,2.5781 14.33,5.2695 21.21,8.1992 7.26,2.5391 12.73,4.8789 16.33,7.0703 2.89,-0.6992 5.47,-1.6406 7.61,-2.6914 1.84,-1.1406 4.96,-1.4883 9.3,-1.1406 0,1.4531 1.99,2.8906 5.98,4.3398 3.63,1.5235 5.78,2.9727 6.52,4.4102 -8.67,-3.668 -13.79,-5.1094 -15.23,-4.4102 -1.45,0.7422 -2.15,1.8321 -2.15,3.2813 -0.39,1.4414 -3.28,1.8398 -8.75,1.1289 M 573.32,270.59 c 8.75,-4.34 16.559,-9.379 23.442,-15.238 6.91,-5.821 14.527,-10.153 22.847,-13.051 -5.039,5.078 -13.398,11.961 -25,20.668 -11.597,8.363 -18.711,10.902 -21.289,7.621 m 13.629,50.109 c -16.679,10.16 -32.109,22.192 -46.289,35.942 -14.488,13.441 -29.719,26.289 -45.738,38.668 l -3.75,-3.829 c 6.129,-10.148 13.949,-19.21 23.359,-27.218 9.059,-8.321 19.059,-17.782 29.957,-28.321 6.922,-2.191 14.34,-5.429 22.352,-9.769 8,-4.024 14.68,-5.863 20.109,-5.473 m -205.82,146.492 c -55.899,65.7 -98.16,130.309 -126.828,193.829 -6.571,9.8 -11.84,19.601 -15.821,29.41 -3.949,9.41 -9.218,17.582 -15.781,24.492 3.672,2.148 2.891,8.316 -2.187,18.519 -4.731,10.149 -9.774,19.02 -15.242,26.68 -3.239,1.09 -6.719,1.641 -10.348,1.641 -3.633,-0.391 -5.621,-1.84 -5.973,-4.34 6.172,-11.641 12.34,-23.442 18.512,-35.391 5.777,-11.992 11.598,-23.633 17.379,-34.883 5.121,-11.25 9.851,-21.949 14.18,-32.109 4.378,-9.449 7.82,-18.129 10.359,-26.129 5.07,-8.711 10.152,-17.781 15.269,-27.23 5.043,-9.098 10.313,-18.52 15.782,-28.321 5.429,-9.449 11.05,-19.257 16.871,-29.41 5.789,-9.461 11.801,-19.07 17.969,-28.828 6.14,-9.851 12.539,-19.461 19.031,-28.91 6.91,-9.063 14.019,-17.93 21.25,-26.641 7.258,-9.058 14.879,-17.461 22.89,-25.082 7.61,-8.008 15.778,-15.386 24.489,-22.297 5.082,-6.531 10.16,-12.89 15.23,-19.07 5.43,-5.781 11.102,-11.242 16.879,-16.359 11.289,-10.16 22.731,-19.922 34.34,-29.383 23.551,-17.379 48.082,-37.18 73.512,-59.328 4.73,-2.192 9.379,-4.571 14.097,-7.071 5.121,-2.539 7.852,-1.492 8.172,3.239 -33.012,28.32 -65.121,57.89 -96.332,88.793 -31.25,30.468 -60.469,61.867 -87.699,94.179 M 47.3789,1086.29 c -3.668,13.44 -7.418,26.29 -11.4375,38.67 -4.3828,12.31 -7.6211,25.2 -9.8125,38.59 -2.5391,13.48 -4.5273,27.82 -5.9687,43.09 -1.1016,15.2 -2,30.66 -2.7383,46.25 -0.3516,7.97 -0.7031,15.78 -1.0938,23.4 -0.3867,7.62 -0.707,15.23 -1.0976,22.89 -0.3516,15.23 -1.6407,29.57 -3.7813,43.01 3.6289,8.36 4.7227,14.49 3.2813,18.51 -1.8399,3.99 -1.4922,12.7 1.0508,26.1 -1.8008,2.58 -3.9805,4.96 -6.51958,7.11 -2.19141,2.18 -3.99219,1.64 -5.43359,-1.64 -1.83985,-1.45 -3.089849,-4.73 -3.82813,-9.81 1.44922,-14.88 1.98828,-28.67 1.60156,-41.37 0.38672,-12.69 1.67969,-25.78 3.82813,-39.18 -4.33985,-39.61 -4.531252,-78.43 -0.55078,-116.56 4.03125,-38.12 10.90239,-76.01 20.74219,-113.79 9.7695,-38.12 21.5703,-76.951 35.3984,-116.521 13.75,-39.918 28.9805,-82.23 45.6995,-126.84 2.89,-3.668 6.011,-8 9.261,-13.121 3.629,-4.687 7.258,-10.156 10.86,-16.328 6.949,-17.379 14.57,-36.09 22.89,-56.051 8.711,-19.969 18.36,-39.379 28.86,-58.289 10.551,-18.82 21.609,-35.539 33.211,-50.07 11.597,-14.141 23.429,-24.34 35.39,-30.469 -13.05,23.938 -27.23,49.527 -42.461,76.75 -15.589,27.231 -30.671,55.199 -45.199,83.867 C 135.59,814.57 114.34,867.379 95.8203,922.93 77.3398,978.09 61.1719,1032.54 47.3789,1086.29 M 227.578,2171.45 c 7.652,10.15 8.902,15.78 3.832,16.87 -7.621,-10.51 -8.871,-16.17 -3.832,-16.87 m 465.043,390.43 c -4.73,-2.58 -5.82,-2.74 -3.281,-0.55 2.18,2.15 4.332,4.14 6.519,5.97 1.84,2.19 -0.199,1.8 -5.98,-1.09 0.742,-1.44 -1.828,-3.63 -7.649,-6.52 -5.429,-2.54 -9.96,-5.08 -13.601,-7.66 0.391,-2.15 3.992,-1.8 10.902,1.09 6.918,2.93 11.25,5.86 13.09,8.76 m 860.309,-175.9 c -4.73,2.18 -10.39,3.98 -16.91,5.43 -6.14,1.48 -13.05,2.22 -20.71,2.22 -14.84,0.71 -29.72,0 -44.61,-2.22 -14.88,-2.15 -27.42,-4.73 -37.58,-7.62 1.45,-3.99 3.79,-7.62 7.08,-10.9 16.71,-1.05 31.05,-0.86 43,0.59 11.6,0.7 22.89,1.99 33.79,3.82 3.24,-3.67 10.51,-6.4 21.76,-8.16 11.25,-2.58 21.25,-3.87 29.96,-3.87 -0.39,9.07 -5.62,15.98 -15.78,20.71 m 199.26,371.36 c -1.1,5.82 -9.07,10.86 -23.99,15.24 -0.31,-2.93 2.58,-5.47 8.75,-7.62 6.17,-2.19 11.25,-4.73 15.24,-7.62 m 678.43,-443.79 c 37.04,-31.95 72.43,-70.03 106.18,-114.33 33.79,-43.95 63.9,-92.19 90.39,-144.84 2.89,-2.9 5.62,-5.08 8.16,-6.53 2.58,-1.09 5.63,-5.82 9.3,-14.14 4.33,-9.1 6.68,-16.33 7.03,-21.8 0.39,-5.43 3.28,-13.28 8.75,-23.43 5.43,2.22 6.48,8.55 3.28,19.06 -2.97,10.55 -5.66,20.7 -8.2,30.51 -2.54,10.15 -0.71,15.78 5.47,16.87 -31.6,47.89 -64.46,94.42 -98.56,139.42 -33.79,44.61 -71.37,87.85 -112.73,129.57 -11.6,6.56 -20.67,7.61 -27.23,3.28 2.89,-3.28 5.43,-6.17 7.62,-8.71 2.19,-2.93 2.38,-4.53 0.54,-4.93 m 237.97,-946.87 c 0,-6.17 0.16,-12.3 0.55,-18.48 -1.84,-0.74 -3.28,-0.39 -4.37,1.06 -1.06,1.44 -2.19,2.54 -3.29,3.28 0.71,3.59 1.49,7.07 2.23,10.31 1.06,2.89 2.7,4.18 4.88,3.83" /><path
         id="path16"
         style="fill:#000000;fill-opacity:1;fill-rule:evenodd;stroke:none"
         d="m 514.102,1454.92 c -0.192,0.55 0.347,1.92 1.597,4.18 1.25,2.23 2.621,4.96 4.141,8.28 1.531,3.28 3.051,7.03 4.539,11.21 1.519,4.22 2.609,8.52 3.242,12.97 0.617,4.49 0.539,8.95 -0.16,13.4 -0.699,4.45 -2.582,8.71 -5.621,12.81 -1.762,2.15 -4.418,3.36 -7.891,3.64 -3.48,0.27 -7.39,-0.28 -11.758,-1.61 -4.382,-1.32 -8.91,-3.39 -13.64,-6.17 -4.723,-2.73 -9.063,-5.97 -12.961,-9.61 -3.949,-3.67 -7.27,-7.73 -10.039,-12.18 -2.781,-4.46 -4.34,-8.99 -4.692,-13.64 -0.347,-3.75 -0.199,-7.22 0.43,-10.43 0.59,-3.2 1.441,-6.13 2.539,-8.82 1.051,-2.66 2.223,-5.16 3.473,-7.5 1.25,-2.31 2.39,-4.34 3.48,-6.14 1.41,-2.5 3.629,-5.27 6.68,-8.28 3.008,-3.05 6.328,-6.48 9.879,-10.31 3.558,-3.83 7.148,-8.17 10.711,-12.97 3.551,-4.8 6.679,-10.23 9.371,-16.33 2.656,-6.05 4.527,-12.81 5.59,-20.31 1.09,-7.5 0.968,-15.78 -0.242,-24.88 -1.989,-13.21 -5.11,-24.18 -9.372,-33.01 -4.296,-8.83 -8.949,-15.94 -14.058,-21.29 -5.078,-5.35 -10.199,-9.22 -15.36,-11.64 -5.191,-2.38 -9.449,-3.95 -12.851,-4.65 -2.649,-0.55 -5.82,-1.05 -9.488,-1.48 -3.672,-0.43 -7.5,-0.36 -11.481,0.27 -4.031,0.62 -8.09,1.87 -12.191,3.75 -4.098,1.87 -7.739,4.77 -10.981,8.67 -3.707,4.45 -6.679,9.3 -8.828,14.45 -1.949,4.46 -3.39,9.58 -4.41,15.4 -0.98,5.78 -0.469,11.79 1.48,18.04 1.45,1.6 2.93,3.01 4.54,4.26 1.64,1.25 3.242,2.34 4.839,3.24 1.762,1.06 3.629,2.03 5.621,2.93 2.309,0.71 4.61,1.33 6.961,1.88 1.95,0.35 4.02,0.58 6.25,0.66 2.258,0.08 4.329,-0.23 6.289,-0.94 -2.66,-3.04 -4.531,-5.89 -5.589,-8.55 -0.743,-1.45 -1.25,-2.7 -1.641,-3.75 -0.699,-3.4 -0.898,-7.46 -0.66,-12.19 0.269,-4.73 1.25,-9.26 2.961,-13.63 1.679,-4.38 4.148,-8.09 7.347,-11.21 3.204,-3.13 7.5,-4.77 12.852,-4.96 13.012,-0.36 24.059,9.8 33.16,30.5 3.012,6.41 4.57,12.9 4.649,19.5 0.121,6.6 -0.7,12.93 -2.379,18.98 -1.719,6.09 -3.95,11.76 -6.68,16.99 -2.77,5.28 -5.59,9.77 -8.441,13.52 -2.848,3.75 -6.289,7.81 -10.309,12.19 -3.98,4.33 -7.969,9.1 -11.879,14.29 -3.941,5.16 -7.461,10.78 -10.582,16.84 -3.129,6.05 -5.199,12.66 -6.289,19.8 -1.41,9.96 -0.469,19.11 2.809,27.43 3.32,8.28 7.781,15.54 13.402,21.79 5.59,6.21 11.758,11.33 18.437,15.24 6.68,3.9 12.622,6.4 17.774,7.5 28.707,5.7 47.539,0.9 56.449,-14.46 3.75,-5.89 5.777,-12.11 6.129,-18.71 0.391,-6.6 -0.039,-12.73 -1.172,-18.32 -1.168,-5.62 -2.617,-10.35 -4.297,-14.18 -1.679,-3.83 -2.812,-5.93 -3.32,-6.29 -1.09,-1.09 -2.77,-2.22 -5.121,-3.47 -2.301,-1.25 -6.051,-2.42 -11.211,-3.48 -1.438,-0.35 -2.848,-0.55 -4.289,-0.55 -1.25,0 -2.578,0.08 -3.988,0.28 -1.442,0.19 -2.692,0.54 -3.75,1.05 z m 65,-127.03 c -6.801,0 -12.301,1.09 -16.602,3.2 -4.262,2.15 -7.621,4.77 -10.039,7.89 -2.383,3.13 -4.102,6.53 -5.082,10.16 -0.969,3.67 -1.438,7.03 -1.438,10.04 0,5.35 0.43,11.02 1.329,16.99 0.89,5.98 1.949,11.49 3.199,16.6 1.25,5.08 2.34,9.38 3.359,12.97 0.973,3.56 1.641,5.78 1.992,6.68 1.602,5.16 3.711,9.65 6.289,13.52 2.582,3.83 6.172,6.44 10.821,7.85 1.8,0.39 3.672,0.74 5.621,1.09 1.609,0.16 3.25,0.28 4.969,0.28 1.679,0 3.242,-0.28 4.64,-0.82 -4.801,-12.31 -8.59,-22.54 -11.359,-30.75 -2.742,-8.2 -4.852,-14.88 -6.289,-20.07 -1.602,-5.86 -2.582,-10.59 -2.934,-14.18 -0.898,-8.01 -0.156,-14.07 2.152,-18.17 2.301,-4.1 7.032,-6.17 14.18,-6.17 4.61,0 9.102,1.76 13.36,5.23 4.289,3.48 8.199,7.97 11.75,13.52 -0.5,2.85 -0.782,5.78 -0.782,8.83 0,5.7 0.473,11.25 1.492,16.68 0.969,5.47 2.11,10.54 3.469,15.27 1.332,4.73 2.742,8.95 4.262,12.7 1.519,3.75 2.809,6.68 3.867,8.82 1.992,4.26 3.75,6.92 5.352,7.9 1.601,0.97 4.218,1.56 7.769,1.71 1.41,0.2 2.621,0.24 3.602,0.16 0.969,-0.08 1.828,-0.23 2.539,-0.39 2.14,-0.55 3.199,-1.64 3.199,-3.24 0,-2.85 -0.16,-7.11 -0.508,-12.81 -0.351,-5.71 -1.441,-11.61 -3.203,-17.66 -1.25,-5 -2.457,-9.22 -3.629,-12.7 -1.14,-3.47 -2.269,-6.44 -3.328,-8.82 -1.09,-2.43 -2.141,-4.38 -3.242,-5.9 -1.051,-1.53 -2.027,-2.89 -2.93,-4.14 0.352,-5.36 0.821,-9.65 1.332,-12.86 0.547,-3.2 1.207,-5.66 2.028,-7.34 0.781,-1.68 1.761,-2.85 2.929,-3.48 1.172,-0.62 2.461,-0.93 3.871,-0.93 2.5,0 5.469,1.21 8.832,3.59 3.399,2.42 6.911,5.47 10.579,9.1 3.64,3.67 7.308,7.7 10.941,12.03 3.668,4.38 7.027,8.52 10.039,12.46 3.051,3.91 5.621,7.35 7.77,10.28 2.152,2.97 3.48,4.76 3.992,5.51 1.25,1.6 2.457,2.57 3.629,2.93 1.168,0.35 2.109,0.23 2.808,-0.4 0.711,-0.62 1.102,-1.6 1.211,-2.96 0.078,-1.33 -0.308,-2.78 -1.211,-4.42 -3.59,-6.76 -7.969,-13.94 -13.238,-21.52 -5.27,-7.58 -10.902,-14.57 -16.84,-20.98 -5.973,-6.44 -11.992,-11.76 -18.082,-16.05 -6.059,-4.3 -11.758,-6.41 -17.109,-6.41 -4.809,0 -8.59,1.64 -11.371,4.92 -2.77,3.32 -5.11,8.09 -7.071,14.34 -4.097,-6.45 -8.937,-11.37 -14.449,-14.85 -5.551,-3.47 -11.68,-5.23 -18.437,-5.23 z m 165.82,-33.94 c -0.902,-4.3 -2.031,-9.65 -3.363,-16.06 -1.329,-6.44 -2.848,-13.2 -4.528,-20.35 -1.722,-7.11 -3.672,-14.22 -5.902,-21.25 -2.219,-7.03 -4.68,-13.36 -7.34,-18.99 -2.699,-5.62 -5.629,-10.19 -8.828,-13.78 -3.199,-3.56 -6.801,-5.36 -10.699,-5.36 -5.903,0 -10.942,1.76 -15.121,5.24 -4.18,3.48 -7.692,7.85 -10.551,13.08 -2.852,5.28 -4.961,10.94 -6.289,17 -1.36,6.05 -2.031,11.68 -2.031,16.87 0,7.11 0.628,13.05 1.878,17.77 1.25,4.73 3.442,9.22 6.563,13.52 3.129,4.26 7.34,8.83 12.699,13.63 5.352,4.81 12.219,10.78 20.578,17.93 4.102,3.56 8.051,6.96 11.801,10.16 3.75,3.2 7.301,6.13 10.699,8.83 0.864,3.55 1.723,6.91 2.543,10 0.778,3.12 1.449,5.93 1.989,8.43 -4.641,-6.24 -10.192,-11.48 -16.719,-15.78 -6.52,-4.25 -13.942,-6.4 -22.34,-6.4 -7.66,0 -13.871,3.44 -18.59,10.27 -4.691,6.88 -7.07,16.99 -7.07,30.39 0,6.56 1.25,14.14 3.75,22.74 2.5,8.55 6.051,16.56 10.699,24.06 4.609,7.46 10.352,13.83 17.109,18.98 6.762,5.16 14.34,7.74 22.731,7.74 3.91,0 7.308,-0.98 10.16,-2.93 2.852,-1.96 5.27,-4.42 7.23,-7.35 1.95,-2.93 3.469,-6.05 4.532,-9.37 1.09,-3.28 1.867,-6.37 2.418,-9.22 0.351,1.05 0.621,2.19 0.82,3.36 0.16,1.13 0.43,2.15 0.781,3.05 1.797,6.09 3.789,10.23 6.02,12.46 2.219,2.22 5.578,3.32 10.039,3.32 2.5,0 4.57,-0.43 6.289,-1.33 1.672,-0.9 2.531,-1.68 2.531,-2.42 -0.89,-1.96 -1.601,-3.48 -2.14,-4.53 -0.551,-1.06 -1.059,-2.19 -1.61,-3.36 -0.539,-1.14 -1.051,-2.62 -1.601,-4.42 -0.539,-1.76 -1.25,-4.33 -2.149,-7.73 -0.351,-1.25 -1.012,-4.14 -1.988,-8.71 -0.973,-4.53 -2.223,-9.92 -3.75,-16.17 -1.524,-6.25 -3.121,-13.09 -4.801,-20.59 -1.723,-7.5 -3.359,-14.8 -4.961,-21.95 5,2.89 10.149,6.36 15.5,10.47 5.36,4.1 10.43,8.28 15.238,12.53 4.84,4.3 9.102,8.36 12.852,12.19 3.75,3.83 6.52,6.99 8.281,9.49 1.449,2.15 3.047,3.64 4.84,4.54 1.758,0.89 3.328,1.21 4.649,0.93 1.371,-0.27 2.152,-1.05 2.429,-2.38 0.27,-1.37 -0.32,-3.16 -1.758,-5.51 -4.062,-6.6 -9.062,-12.97 -14.961,-19.1 -5.902,-6.17 -11.921,-11.87 -18.05,-17.11 -6.168,-5.27 -12.11,-9.92 -17.93,-13.9 -5.781,-4.03 -10.738,-7.27 -14.84,-9.77 -1.762,-8.05 -3.281,-14.53 -4.539,-19.53 -1.242,-5 -2.34,-9.53 -3.199,-13.63 z m -33.711,52.65 c 3.75,0 7.269,1.02 10.551,2.97 3.316,1.95 6.289,4.22 8.976,6.8 2.66,2.61 4.883,5.23 6.684,7.89 1.797,2.69 3.129,4.84 4.027,6.44 0.699,1.6 1.563,3.71 2.531,6.41 0.981,2.66 1.719,5.27 2.27,7.77 0.551,2.46 0.738,4.69 0.66,6.68 -0.07,1.96 -0.738,3.01 -1.988,3.21 -1.094,0.15 -1.91,0.89 -2.543,2.14 -0.617,1.25 -1.129,2.66 -1.481,4.26 -0.347,1.6 -0.589,3.21 -0.668,4.81 -0.07,1.64 -0.23,3.04 -0.39,4.29 -0.891,6.25 -2.418,10.78 -4.57,13.64 -2.149,2.85 -4.532,4.29 -7.219,4.29 -4.461,0 -8.672,-1.79 -12.699,-5.35 -4.024,-3.59 -7.582,-8.16 -10.704,-13.79 -3.128,-5.62 -5.546,-11.76 -7.347,-18.44 -1.789,-6.67 -2.692,-13.08 -2.692,-19.14 0,-7.5 1.09,-13.51 3.243,-18.04 2.109,-4.53 6.558,-6.84 13.359,-6.84 z M 698.91,1222.5 c 3.551,0 6.442,2.66 8.668,7.89 2.262,5.27 4.613,12.46 7.113,21.56 0.539,2.11 1.289,5.2 2.258,9.22 0.981,4.03 2.153,8.6 3.481,13.75 1.332,5.2 2.73,10.74 4.14,16.72 1.45,5.98 2.969,11.99 4.571,18.09 -1.442,-1.25 -2.93,-2.54 -4.411,-3.91 -1.531,-1.33 -3.089,-2.89 -4.691,-4.69 -3.949,-3.71 -7.738,-7.34 -11.367,-10.82 -3.672,-3.47 -6.91,-7.11 -9.762,-10.97 -2.859,-3.83 -5.121,-7.97 -6.84,-12.43 -1.679,-4.45 -2.539,-9.61 -2.539,-15.5 0,-5.9 0.239,-10.71 0.668,-14.46 0.461,-3.75 1.09,-6.68 1.871,-8.83 0.821,-2.14 1.801,-3.59 2.969,-4.41 1.133,-0.78 2.422,-1.21 3.871,-1.21 z m 238.551,162.89 c -2.5,-3.55 -5.699,-7.97 -9.609,-13.24 -3.942,-5.24 -7.973,-10.51 -12.192,-15.78 -4.18,-5.24 -8.281,-10.08 -12.301,-14.42 -3.98,-4.37 -7.339,-7.46 -10,-9.25 -1.8,-1.06 -3.871,-1.96 -6.168,-2.66 -2.312,-0.7 -4.691,-1.17 -7.07,-1.33 -2.422,-0.19 -4.691,-0.04 -6.84,0.39 -2.152,0.43 -4.019,1.21 -5.621,2.27 -1.609,1.25 -2.93,3.04 -3.988,5.35 -0.902,1.95 -1.762,4.53 -2.543,7.77 -0.82,3.21 -1.129,7.23 -0.93,12.03 -4.301,-7.14 -9.027,-12.61 -14.179,-16.44 -5.2,-3.83 -10.079,-6.64 -14.731,-8.44 -5.348,-1.95 -10.699,-3.12 -16.059,-3.48 -2.5,0 -5.152,0.86 -8,2.54 -2.851,1.68 -5.281,4.38 -7.23,8.01 -1.949,3.67 -3.199,8.4 -3.75,14.18 -0.512,5.82 0.199,12.73 2.148,20.74 2.5,10.86 6.442,20.78 11.911,29.69 5.429,8.91 11.371,16.52 17.781,22.85 6.398,6.33 12.73,11.13 18.98,14.34 6.25,3.2 11.41,4.61 15.508,4.26 4.801,-0.9 8.75,-2.31 11.762,-4.26 2.5,-1.8 4.18,-4.42 4.961,-7.89 0.82,-3.48 -0.672,-8.09 -4.422,-13.79 2.5,0.55 4.609,0.9 6.293,1.05 1.68,0.2 3.008,0.28 3.867,0.28 1.09,0 1.801,-0.08 2.152,-0.28 0.188,-0.35 0.27,-1.09 0.27,-2.26 0,-1.14 -0.27,-3.24 -0.82,-6.29 -0.512,-3.01 -1.332,-7.11 -2.379,-12.31 -1.102,-5.15 -2.5,-11.83 -4.301,-20.04 -0.352,-1.6 -0.66,-3.08 -0.941,-4.41 -0.27,-1.33 -0.5,-2.69 -0.782,-4.02 -0.269,-1.33 -0.578,-2.89 -0.937,-4.69 -0.352,-1.76 -0.821,-3.98 -1.321,-6.68 -0.199,-1.6 -0.242,-3.32 -0.16,-5.2 0.078,-1.87 0.391,-3.63 0.942,-5.23 0.539,-1.6 1.359,-2.89 2.539,-3.87 1.168,-0.97 2.808,-1.48 4.961,-1.48 1.758,0 4.097,1.13 6.949,3.36 2.848,2.22 5.859,5.08 9.098,8.55 3.211,3.48 6.531,7.31 10,11.49 3.48,4.22 6.761,8.24 9.769,12.18 3.043,3.91 5.781,7.39 8.16,10.43 2.422,3.05 4.141,5.28 5.242,6.68 1.399,1.61 2.848,2.54 4.25,2.82 1.45,0.27 2.5,-0.12 3.211,-1.21 0.739,-1.06 0.86,-2.66 0.43,-4.81 -0.473,-2.15 -1.762,-4.65 -3.91,-7.5 z m -78.359,-11.76 c 0.898,3.56 1.949,7.78 3.199,12.58 1.25,4.81 2.347,9.45 3.25,13.91 0.859,4.45 1.519,8.16 1.988,11.09 0.43,2.93 0.313,4.34 -0.391,4.14 -0.898,-0.19 -1.878,-0.43 -2.968,-0.78 -0.899,-0.39 -2.032,-0.62 -3.481,-0.82 -1.398,-0.2 -2.847,-0.43 -4.25,-0.82 1.403,2.85 2.262,5.23 2.531,7.11 0.282,1.87 0.321,3.32 0.122,4.41 -0.153,1.25 -0.512,2.23 -1.051,2.93 -1.961,1.6 -5.391,0.32 -10.321,-3.86 -4.878,-4.18 -10.539,-11.92 -16.992,-23.13 -2.648,-4.65 -4.797,-9.61 -6.398,-14.84 -1.61,-5.28 -2.699,-10.24 -3.32,-14.85 -0.629,-4.65 -0.79,-8.71 -0.43,-12.18 0.351,-3.48 1.09,-5.75 2.14,-6.8 1.961,-1.99 4.18,-2.93 6.68,-2.81 2.5,0.07 5.039,0.78 7.621,2.11 2.617,1.36 5.199,3.08 7.77,5.23 2.578,2.15 4.89,4.37 6.961,6.68 2.027,2.3 3.75,4.45 5.078,6.41 1.32,1.99 2.109,3.39 2.262,4.29 z m 50.277,-40.11 c -1.258,-1.96 -2.617,-3.25 -4.149,-3.87 -1.48,-0.63 -2.851,-0.74 -3.98,-0.27 -1.172,0.42 -1.91,1.36 -2.301,2.81 -0.359,1.4 0,3.2 1.09,5.35 0.512,1.05 1.723,3.48 3.59,7.19 1.883,3.75 4.101,8.28 6.68,13.51 2.621,5.28 5.39,10.98 8.441,17.11 3.051,6.17 5.941,11.99 8.711,17.54 2.738,5.51 5.269,10.47 7.617,14.84 2.301,4.38 3.981,7.54 5.082,9.5 -1.961,1.79 -3.32,3.08 -4.031,3.86 -0.699,0.82 -1.25,2.54 -1.598,5.24 -0.351,2.3 0.199,5.35 1.598,9.1 1.449,3.71 3.32,7.34 5.633,10.82 2.297,3.48 4.879,6.45 7.726,8.95 2.852,2.5 5.633,3.75 8.321,3.75 5,0 8.519,-1.61 10.55,-4.81 2.071,-3.2 3.243,-6.52 3.629,-9.88 0.352,-2.35 0.16,-5.28 -0.539,-8.83 -0.711,-3.59 -2.07,-6.8 -4.027,-9.65 0.547,-0.35 1.25,-0.74 2.148,-1.21 0.899,-0.43 2.309,-0.66 4.301,-0.66 2.848,0 4.84,0.19 6.008,0.54 1.141,0.35 2.973,0.55 5.473,0.55 3.046,0 5.507,-0.78 7.5,-2.3 1.949,-1.49 3.558,-3.36 4.808,-5.59 1.25,-2.23 2.18,-4.65 2.81,-7.23 0.62,-2.58 1.01,-4.96 1.21,-7.11 0.51,-4.45 -0.63,-9.1 -3.481,-13.9 -2.847,-4.81 -6.32,-10.08 -10.429,-15.78 -2.5,-3.56 -5,-7.58 -7.5,-12.04 -2.5,-4.45 -3.551,-8.47 -3.2,-12.03 0.352,-2.3 0.981,-4.18 1.879,-5.62 0.852,-1.41 3.352,-2.15 7.461,-2.15 3.039,0 6.399,1.13 10.039,3.36 3.671,2.23 7.421,5.08 11.251,8.55 3.82,3.48 7.61,7.31 11.36,11.53 3.71,4.18 7.23,8.28 10.43,12.3 3.21,3.99 5.9,7.62 8.13,10.82 2.26,3.21 3.9,5.51 4.96,6.96 0.9,1.4 2.07,2.38 3.47,2.93 1.45,0.54 2.7,0.54 3.75,0 1.06,-0.55 1.76,-1.61 2,-3.21 0.27,-1.6 -0.39,-3.75 -2,-6.4 -1.05,-1.8 -2.89,-4.65 -5.46,-8.56 -2.62,-3.94 -5.71,-8.32 -9.38,-13.12 -3.67,-4.81 -7.69,-9.77 -12.19,-14.85 -4.45,-5.08 -9.1,-9.72 -14.02,-13.9 -4.88,-4.18 -9.801,-7.62 -14.73,-10.32 -4.879,-2.65 -9.571,-3.98 -14.02,-3.98 -4.648,0 -8.48,0.9 -11.48,2.66 -3.051,1.79 -5.508,3.98 -7.391,6.56 -1.867,2.58 -3.199,5.43 -3.981,8.55 -0.82,3.13 -1.128,6.02 -0.937,8.71 0.16,2.11 0.738,4.42 1.719,6.8 0.98,2.42 2.148,4.92 3.48,7.5 1.32,2.58 2.77,5.16 4.289,7.74 1.492,2.61 2.891,5.15 4.141,7.65 3.012,5.16 5.469,9.57 7.351,13.24 1.868,3.64 2.809,6.72 2.809,9.22 0,1.6 -0.352,3.01 -1.051,4.26 -0.75,1.25 -1.879,1.87 -3.48,1.87 -1.09,0 -1.84,-0.03 -2.309,-0.11 -0.43,-0.12 -0.859,-0.16 -1.32,-0.16 -0.43,0 -1.059,-0.04 -1.879,-0.12 -0.781,-0.07 -1.992,-0.11 -3.59,-0.11 -2.351,0 -4.301,0.35 -5.902,1.05 -1.598,0.71 -3.129,1.25 -4.528,1.6 -0.711,-1.25 -2.351,-3.9 -4.812,-8 -2.5,-4.11 -5.43,-8.95 -8.707,-14.46 -3.281,-5.54 -6.762,-11.33 -10.434,-17.38 -3.668,-6.05 -7.066,-11.72 -10.308,-16.99 -3.2,-5.28 -5.899,-9.73 -8.129,-13.36 -2.262,-3.67 -3.629,-5.86 -4.172,-6.56 z m 264.531,23.78 c -1.06,-11.95 -4.65,-22.61 -10.71,-32.07 -6.05,-9.45 -13.79,-17.46 -23.12,-23.94 -9.38,-6.52 -19.92,-11.45 -31.72,-14.84 -11.76,-3.4 -23.87,-5.08 -36.37,-5.08 -4.61,0 -8.94,0.31 -12.97,0.93 -3.98,0.63 -7.61,1.37 -10.82,2.27 -3.2,0.9 -5.93,1.72 -8.16,2.54 -2.23,0.82 -3.79,1.48 -4.69,1.99 -1.6,0.9 -2.89,2.03 -3.87,3.36 -0.97,1.33 -1.56,3.24 -1.71,5.74 -0.2,1.45 -0.28,2.54 -0.28,3.36 0,0.78 0.08,1.64 0.28,2.54 0.15,0.9 0.46,2.07 0.89,3.6 0.47,1.52 1.06,3.63 1.76,6.28 0.35,1.61 1.72,6.64 4.14,15.12 2.42,8.48 5.32,18.83 8.71,31.02 3.36,12.22 7.07,25.47 11.1,39.72 3.98,14.26 7.89,28.09 11.64,41.45 3.71,13.4 7.11,25.47 10.15,36.25 3.01,10.78 5.24,18.75 6.68,23.94 -2.5,-1.79 -4.96,-3.67 -7.34,-5.62 -2.42,-1.95 -4.88,-4.1 -7.38,-6.41 -2.66,-2.5 -5.28,-3.36 -7.89,-2.54 -2.58,0.79 -4.42,2.97 -5.47,6.53 -0.35,1.79 -0.63,3.67 -0.78,5.62 -0.2,1.6 -0.16,3.44 0.11,5.47 0.28,2.07 0.94,4.06 2,6.06 5.89,3.55 11.64,6.56 17.26,9.06 5.63,2.5 11.02,4.73 16.17,6.72 1.1,3.01 2.27,5.31 3.64,6.95 1.32,1.6 2.69,2.66 4.14,3.2 1.4,0.51 2.93,0.71 4.53,0.51 1.6,-0.15 3.32,-0.43 5.08,-0.78 3.94,-0.9 6.52,-2.15 7.77,-3.75 2.5,0.35 4.88,0.62 7.23,0.82 2.3,0.16 4.72,0.23 7.18,0.23 10.36,0 19.38,-1.32 27.03,-3.98 7.66,-2.69 13.95,-6.29 18.87,-10.86 4.89,-4.53 8.4,-9.84 10.55,-15.9 2.15,-6.05 2.93,-12.5 2.42,-19.26 -0.55,-5.89 -2.11,-11.99 -4.69,-18.32 -2.57,-6.32 -6.01,-12.57 -10.31,-18.71 -4.26,-6.17 -9.26,-12.14 -14.96,-17.93 -5.7,-5.78 -12.03,-11.09 -18.98,-15.89 5.5,-3.25 10.43,-6.96 14.68,-11.25 4.3,-4.3 7.85,-8.91 10.71,-13.91 2.85,-5 4.92,-10.08 6.17,-15.24 1.25,-5.19 1.68,-10.15 1.33,-15 z m -88.52,65.55 c -0.35,-1.8 -0.78,-3.59 -1.21,-5.35 -0.47,-1.8 -0.94,-3.67 -1.48,-5.62 2.14,2.3 5.74,4.45 10.82,6.4 5.11,1.99 9.96,2.97 14.6,2.97 2.5,0 4.89,-0.16 7.23,-0.43 2.31,-0.23 4.53,-0.55 6.68,-0.94 4.96,3.24 9.81,7.39 14.42,12.46 4.64,5.08 8.71,10.51 12.18,16.29 3.48,5.82 6.33,11.76 8.56,17.82 2.22,6.05 3.59,11.67 4.14,16.83 1.09,12.31 -1.02,21.45 -6.29,27.42 -5.24,5.98 -12.7,8.95 -22.31,8.95 -6.44,0 -13.12,-1.13 -20.07,-3.48 -1.41,-4.61 -3.21,-10.39 -5.36,-17.22 -2.14,-6.88 -4.41,-14.42 -6.79,-22.62 -2.42,-8.21 -4.96,-16.84 -7.66,-25.94 -2.65,-9.1 -5.15,-18.28 -7.46,-27.54 z m -4.57,-17.65 c -2.5,-9.65 -5,-20.08 -7.46,-31.29 -2.34,-9.65 -4.84,-20.82 -7.5,-33.56 -2.7,-12.77 -5.55,-26.37 -8.56,-40.82 1.06,-0.86 2.5,-1.48 4.26,-1.87 1.8,-0.36 3.6,-0.71 5.35,-1.06 1.96,-0.35 4.11,-0.55 6.45,-0.55 8.01,0 16.17,1.68 24.45,4.97 8.28,3.28 15.9,7.96 22.85,14.02 6.96,6.09 12.82,13.44 17.54,22.07 4.73,8.67 7.54,18.32 8.44,29.02 0.35,4.81 0.04,9.14 -0.94,12.97 -0.97,3.83 -2.42,7.31 -4.29,10.43 -1.88,3.13 -4.03,5.9 -6.41,8.32 -2.42,2.38 -4.96,4.49 -7.62,6.25 -8.2,-4.45 -17.22,-8.16 -27.03,-11.21 -3.2,-0.9 -5.97,-1.01 -8.28,-0.39 -2.34,0.62 -4.3,1.6 -5.9,2.93 -1.6,1.33 -2.85,2.89 -3.75,4.69 -0.86,1.76 -1.4,3.47 -1.6,5.08 z m 106.17,-71.68 c -1.21,-1.96 -2.61,-3.25 -4.14,-3.87 -1.48,-0.63 -2.85,-0.74 -3.98,-0.27 -1.17,0.42 -1.92,1.36 -2.31,2.81 -0.35,1.4 0,3.2 1.1,5.35 0.54,1.05 1.72,3.48 3.59,7.19 1.87,3.75 4.1,8.28 6.68,13.51 2.62,5.28 5.43,10.98 8.44,17.11 3.04,6.17 5.93,11.99 8.71,17.54 2.73,5.51 5.27,10.47 7.62,14.84 2.3,4.38 3.98,7.54 5.07,9.5 -1.95,1.79 -3.32,3.08 -4.02,3.86 -0.7,0.82 -1.25,2.54 -1.6,5.24 -0.35,2.3 0.19,5.35 1.6,9.1 1.45,3.71 3.32,7.34 5.63,10.82 2.3,3.48 4.88,6.45 7.73,8.95 2.89,2.5 5.62,3.75 8.32,3.75 5,0 8.52,-1.61 10.55,-4.81 2.07,-3.2 3.28,-6.52 3.63,-9.88 0.35,-2.35 0.16,-5.28 -0.55,-8.83 -0.7,-3.59 -2.07,-6.8 -4.02,-9.65 0.55,-0.35 1.25,-0.74 2.15,-1.21 0.9,-0.43 2.3,-0.66 4.29,-0.66 2.86,0 4.85,0.19 6.02,0.54 1.13,0.35 2.97,0.55 5.47,0.55 3.05,0 5.51,-0.78 7.5,-2.3 1.95,-1.49 3.55,-3.36 4.8,-5.59 1.25,-2.23 2.19,-4.65 2.82,-7.23 0.62,-2.58 1.01,-4.96 1.21,-7.11 0.5,-4.45 -0.63,-9.1 -3.48,-13.9 -2.85,-4.81 -6.33,-10.08 -10.43,-15.78 -2.5,-3.56 -5,-7.58 -7.5,-12.04 -2.5,-4.45 -3.55,-8.47 -3.2,-12.03 0.35,-2.3 0.97,-4.18 1.87,-5.62 0.86,-1.41 3.36,-2.15 7.46,-2.15 3.05,0 6.41,1.13 10.04,3.36 3.67,2.23 7.42,5.08 11.25,8.55 3.83,3.48 7.62,7.31 11.37,11.53 3.75,4.18 7.23,8.28 10.43,12.3 3.2,3.99 5.9,7.62 8.16,10.82 2.23,3.21 3.87,5.51 4.93,6.96 0.89,1.4 2.07,2.38 3.47,2.93 1.45,0.54 2.7,0.54 3.75,0 1.06,-0.55 1.76,-1.61 1.99,-3.21 0.28,-1.6 -0.39,-3.75 -1.99,-6.4 -1.05,-1.8 -2.89,-4.65 -5.47,-8.56 -2.57,-3.94 -5.7,-8.32 -9.37,-13.12 -3.67,-4.81 -7.7,-9.77 -12.15,-14.85 -4.49,-5.08 -9.14,-9.72 -14.06,-13.9 -4.89,-4.18 -9.81,-7.62 -14.73,-10.32 -4.88,-2.65 -9.57,-3.98 -14.02,-3.98 -4.65,0 -8.48,0.9 -11.49,2.66 -3.04,1.79 -5.51,3.98 -7.38,6.56 -1.87,2.58 -3.2,5.43 -3.98,8.55 -0.82,3.13 -1.14,6.02 -0.94,8.71 0.15,2.11 0.74,4.42 1.72,6.8 0.97,2.42 2.15,4.92 3.47,7.5 1.33,2.58 2.78,5.16 4.3,7.74 1.52,2.61 2.89,5.15 4.14,7.65 3.01,5.16 5.47,9.57 7.34,13.24 1.88,3.64 2.82,6.72 2.82,9.22 0,1.6 -0.35,3.01 -1.06,4.26 -0.74,1.25 -1.87,1.87 -3.47,1.87 -1.1,0 -1.84,-0.03 -2.31,-0.11 -0.43,-0.12 -0.86,-0.16 -1.33,-0.16 -0.43,0 -1.05,-0.04 -1.87,-0.12 -0.78,-0.07 -1.99,-0.11 -3.6,-0.11 -2.3,0 -4.29,0.35 -5.89,1.05 -1.61,0.71 -3.13,1.25 -4.54,1.6 -0.7,-1.25 -2.34,-3.9 -4.8,-8 -2.5,-4.11 -5.43,-8.95 -8.71,-14.46 -3.28,-5.54 -6.76,-11.33 -10.43,-17.38 -3.67,-6.05 -7.07,-11.72 -10.31,-16.99 -3.21,-5.28 -5.9,-9.73 -8.13,-13.36 -2.22,-3.67 -3.63,-5.86 -4.18,-6.56 z m 200.63,41.17 c -1.8,-6.76 -4.22,-13.09 -7.23,-18.99 -3.05,-5.86 -6.64,-10.97 -10.86,-15.23 -4.18,-4.3 -8.91,-7.62 -14.14,-10.04 -5.27,-2.38 -11.01,-3.59 -17.27,-3.59 -7.3,0 -13.04,1.56 -17.26,4.68 -4.18,3.09 -7.31,7 -9.34,11.6 -2.07,4.65 -3.32,9.73 -3.75,15.28 -0.47,5.51 -0.66,10.7 -0.66,15.51 0,3.39 0.39,7.11 1.21,11.21 0.78,4.1 1.91,8.32 3.32,12.58 1.45,4.29 3.24,8.55 5.47,12.85 2.27,4.25 4.88,8.2 7.89,11.75 1.09,3.05 2.73,5.71 4.96,8.01 2.23,2.35 4.81,4.26 7.77,5.78 2.93,1.49 6.1,2.66 9.5,3.48 3.36,0.78 6.68,1.21 9.88,1.21 0.55,0 1.01,-0.12 1.48,-0.27 0.43,-0.2 0.94,-0.35 1.45,-0.55 2.34,-0.19 5.23,-1.05 8.71,-2.66 3.48,-1.64 6.87,-4.02 10.16,-7.22 3.32,-3.24 6.09,-7.27 8.43,-12.19 2.31,-4.88 3.48,-10.82 3.48,-17.77 0,-1.45 -0.12,-3.17 -0.27,-5.24 -0.2,-2.03 -0.35,-3.79 -0.55,-5.19 4.1,1.6 8.4,3.55 12.85,5.86 4.45,2.34 8.79,4.76 12.97,7.38 4.18,2.58 8.05,5.19 11.64,7.89 3.56,2.66 6.41,5.08 8.56,7.23 1.79,1.6 3.28,2.46 4.53,2.65 1.25,0.2 2.15,-0.19 2.69,-1.05 0.51,-0.9 0.63,-2.15 0.28,-3.75 -0.4,-1.6 -1.37,-3.4 -2.97,-5.35 -0.9,-1.1 -3.17,-3.21 -6.8,-6.45 -3.67,-3.2 -8.01,-6.68 -12.97,-10.43 -5,-3.71 -10.43,-7.38 -16.33,-10.94 -5.9,-3.59 -11.48,-6.25 -16.83,-8.04 z m -45.24,40.66 c -0.5,-1.6 -0.78,-3.28 -0.78,-5.08 0,-2.85 0.2,-5.86 0.55,-8.94 0.35,-3.13 1.25,-5.94 2.65,-8.44 1.45,-2.5 3.72,-4.61 6.84,-6.29 3.13,-1.68 7.42,-2.54 12.97,-2.54 0.9,0 1.76,0.04 2.66,0.12 0.89,0.12 1.79,0.23 2.69,0.43 0.51,2.3 1.02,4.41 1.45,6.29 0.47,1.87 0.66,3.51 0.66,4.92 0.39,3.4 0.39,6.88 0,10.43 -0.35,3.59 -1.02,6.84 -1.99,9.77 -0.98,2.93 -2.23,5.35 -3.75,7.22 -1.53,1.88 -3.32,2.81 -5.47,2.81 -3.4,0 -6.64,-0.93 -9.77,-2.81 -3.12,-1.87 -6.01,-4.49 -8.71,-7.89 z m -17.11,-47.07 c 0,-3.2 0.2,-6.37 0.55,-9.49 0.35,-3.13 1.06,-5.9 2.15,-8.28 1.05,-2.42 2.5,-4.38 4.26,-5.9 1.79,-1.52 4.1,-2.27 6.95,-2.27 3.2,0 6.17,0.75 8.83,2.27 2.69,1.52 5.08,3.48 7.22,5.9 2.15,2.38 4.07,5.15 5.75,8.28 1.72,3.12 3.16,6.37 4.41,9.76 -1.25,-0.19 -2.42,-0.31 -3.59,-0.39 -1.18,-0.11 -2.46,-0.15 -3.87,-0.15 -6.8,0 -12.62,2.03 -17.54,6.01 -4.88,4.03 -8.67,9.14 -11.37,15.39 -1.05,-3.75 -1.95,-7.42 -2.65,-10.97 -0.75,-3.56 -1.1,-6.96 -1.1,-10.16 z m 170.12,6.41 c -1.8,-6.76 -4.18,-13.09 -7.23,-18.99 -3.04,-5.86 -6.64,-10.97 -10.82,-15.23 -4.22,-4.3 -8.9,-7.62 -14.18,-10.04 -5.27,-2.38 -11.01,-3.59 -17.26,-3.59 -7.31,0 -13.05,1.56 -17.23,4.68 -4.22,3.09 -7.34,7 -9.37,11.6 -2.07,4.65 -3.28,9.73 -3.75,15.28 -0.43,5.51 -0.67,10.7 -0.67,15.51 0,3.39 0.39,7.11 1.21,11.21 0.79,4.1 1.92,8.32 3.32,12.58 1.45,4.29 3.29,8.55 5.51,12.85 2.23,4.25 4.85,8.2 7.89,11.75 1.06,3.05 2.7,5.71 4.92,8.01 2.23,2.35 4.85,4.26 7.78,5.78 2.93,1.49 6.09,2.66 9.49,3.48 3.4,0.78 6.68,1.21 9.88,1.21 0.55,0 1.06,-0.12 1.49,-0.27 0.43,-0.2 0.93,-0.35 1.48,-0.55 2.31,-0.19 5.2,-1.05 8.67,-2.66 3.48,-1.64 6.88,-4.02 10.16,-7.22 3.32,-3.24 6.13,-7.27 8.44,-12.19 2.3,-4.88 3.47,-10.82 3.47,-17.77 0,-1.45 -0.07,-3.17 -0.27,-5.24 -0.16,-2.03 -0.35,-3.79 -0.51,-5.19 4.07,1.6 8.36,3.55 12.81,5.86 4.46,2.34 8.79,4.76 12.97,7.38 4.22,2.58 8.09,5.19 11.64,7.89 3.56,2.66 6.41,5.08 8.56,7.23 1.8,1.6 3.32,2.46 4.57,2.65 1.25,0.2 2.11,-0.19 2.66,-1.05 0.54,-0.9 0.62,-2.15 0.27,-3.75 -0.35,-1.6 -1.33,-3.4 -2.93,-5.35 -0.9,-1.1 -3.16,-3.21 -6.84,-6.45 -3.67,-3.2 -7.97,-6.68 -12.97,-10.43 -5,-3.71 -10.43,-7.38 -16.32,-10.94 -5.86,-3.59 -11.49,-6.25 -16.84,-8.04 z m -45.19,40.66 c -0.55,-1.6 -0.82,-3.28 -0.82,-5.08 0,-2.85 0.19,-5.86 0.54,-8.94 0.35,-3.13 1.25,-5.94 2.66,-8.44 1.44,-2.5 3.71,-4.61 6.83,-6.29 3.13,-1.68 7.47,-2.54 12.97,-2.54 0.9,0 1.8,0.04 2.7,0.12 0.86,0.12 1.76,0.23 2.65,0.43 0.55,2.3 1.02,4.41 1.49,6.29 0.43,1.87 0.66,3.51 0.66,4.92 0.35,3.4 0.35,6.88 0,10.43 -0.35,3.59 -1.01,6.84 -2.03,9.77 -0.97,2.93 -2.23,5.35 -3.71,7.22 -1.52,1.88 -3.36,2.81 -5.51,2.81 -3.4,0 -6.64,-0.93 -9.76,-2.81 -3.13,-1.87 -6.02,-4.49 -8.67,-7.89 z m -17.11,-47.07 c 0,-3.2 0.15,-6.37 0.5,-9.49 0.36,-3.13 1.1,-5.9 2.15,-8.28 1.06,-2.42 2.5,-4.38 4.3,-5.9 1.76,-1.52 4.1,-2.27 6.95,-2.27 3.21,0 6.13,0.75 8.83,2.27 2.66,1.52 5.08,3.48 7.19,5.9 2.15,2.38 4.06,5.15 5.78,8.28 1.68,3.12 3.16,6.37 4.41,9.76 -1.25,-0.19 -2.46,-0.31 -3.63,-0.39 -1.13,-0.11 -2.46,-0.15 -3.87,-0.15 -6.79,0 -12.61,2.03 -17.54,6.01 -4.88,4.03 -8.67,9.14 -11.36,15.39 -1.06,-3.75 -1.96,-7.42 -2.66,-10.97 -0.7,-3.56 -1.05,-6.96 -1.05,-10.16 z m 228.12,17.11 c -4.1,-6.76 -8.79,-13.75 -14.06,-20.98 -5.24,-7.22 -10.82,-13.82 -16.68,-19.8 -5.9,-5.98 -11.95,-10.94 -18.2,-14.84 -6.25,-3.91 -12.5,-5.9 -18.72,-5.9 -6.25,0 -10.74,2.11 -13.51,6.29 -2.77,4.22 -4.06,8.86 -3.87,14.06 0,2.3 0.2,4.37 0.67,6.13 0.43,1.8 0.93,3.4 1.44,4.85 0.55,1.4 1.13,2.89 1.76,4.37 0.62,1.52 1.21,3.28 1.72,5.23 0.74,2.31 0.78,4.42 0.15,6.29 -0.62,1.88 -1.4,3.52 -2.26,4.96 -1.6,-1.79 -3.44,-3.35 -5.51,-4.68 -2.03,-1.33 -4.57,-2.03 -7.62,-2.03 -2.14,0 -4.1,1.05 -5.86,3.08 -1.79,2.07 -2.69,4.61 -2.69,7.62 0,2.5 0.58,4.57 1.76,6.17 1.13,1.6 2.46,2.85 3.98,3.75 1.52,0.86 3.09,1.49 4.69,1.88 1.6,0.35 2.93,0.5 4.02,0.5 0.51,0 1.64,-0.07 3.32,-0.27 1.72,-0.16 3.56,-0.43 5.51,-0.78 6.41,5.16 11.02,9.84 13.75,14.02 2.77,4.22 3.01,8.01 0.66,11.37 -1.4,2.34 -3.2,3.52 -5.31,3.63 -2.15,0.08 -4.37,-0.47 -6.72,-1.6 -2.3,-1.17 -4.57,-2.66 -6.79,-4.41 -2.23,-1.8 -4.26,-3.48 -6.02,-5.08 -3.59,-3.6 -7.54,-7.81 -11.91,-12.74 -4.38,-4.88 -7.97,-8.94 -10.82,-12.14 -1.25,-5.36 -2.5,-10.98 -3.75,-16.88 -1.1,-5.16 -2.27,-10.98 -3.64,-17.5 -1.32,-6.52 -2.69,-13.24 -4.14,-20.19 -1.05,-0.55 -2.18,-0.94 -3.32,-1.22 -1.17,-0.27 -2.19,-0.46 -3.08,-0.66 -1.06,-0.16 -2.15,-0.27 -3.21,-0.27 -1.44,0 -2.77,0.04 -4.02,0.15 -1.25,0.08 -2.27,0.51 -3.09,1.33 -0.78,0.78 -1.25,2.11 -1.32,3.87 -0.08,1.8 0.39,4.3 1.48,7.5 1.41,4.65 3.2,10.82 5.35,18.59 2.15,7.74 4.38,16.25 6.68,25.55 2.31,9.26 4.69,18.94 7.07,29.02 2.42,10.04 4.69,19.69 6.84,28.87 2.15,9.18 3.98,17.46 5.47,24.88 1.52,7.39 2.65,13.24 3.36,17.5 0.54,4.65 1.05,9.1 1.6,13.4 0.35,3.56 0.58,7.07 0.66,10.55 0.08,3.47 -0.12,6.09 -0.66,7.89 0.9,0.9 2.15,1.68 3.75,2.42 1.6,0.7 3.4,1.25 5.35,1.6 1.95,0.51 4.26,0.98 6.95,1.33 3.01,0.35 5.55,0.43 7.62,0.27 2.03,-0.19 3.51,-1.09 4.41,-2.69 1.06,-1.76 1.29,-4.77 0.67,-8.95 -0.63,-4.18 -1.92,-10.04 -3.87,-17.54 -2.5,-9.61 -5.04,-18.39 -7.62,-26.32 -2.61,-7.93 -5.08,-15.39 -7.5,-22.35 -2.42,-6.95 -4.72,-13.67 -6.95,-20.19 -2.23,-6.49 -4.26,-13.13 -6.02,-19.92 3.56,5.19 8.01,10.66 13.36,16.44 5.36,5.82 11.41,10.59 18.21,14.34 7.11,3.75 13,5.62 17.65,5.62 5.71,0 9.81,-1.95 12.31,-5.78 2.46,-3.83 3.63,-8.32 3.47,-13.48 -0.19,-4.1 -1.21,-7.89 -3.08,-11.36 -1.88,-3.48 -4.14,-6.72 -6.84,-9.65 -2.65,-2.93 -5.51,-5.47 -8.55,-7.62 -3.01,-2.15 -5.63,-3.91 -7.74,-5.35 2.5,-1.45 4.65,-3.36 6.53,-5.74 1.87,-2.42 2.73,-5.39 2.54,-8.99 -0.16,-4.8 -1.1,-9.02 -2.78,-12.69 -1.72,-3.64 -2.58,-7 -2.58,-10.04 0.2,-2.31 0.71,-3.99 1.49,-5.08 0.82,-1.05 2.54,-1.6 5.23,-1.6 4.81,0 9.85,2.07 15.08,6.17 5.27,4.1 10.24,8.83 14.84,14.18 4.65,5.35 8.95,10.63 12.86,15.9 3.94,5.27 6.95,9.14 9.1,11.64 3.04,3.2 5.58,4.06 7.62,2.54 2.07,-1.53 1.83,-4.34 -0.67,-8.44 z m 162.62,40.94 c 3.75,7.46 7.5,14.92 11.21,22.3 3.75,7.42 7.15,14.34 10.19,20.75 3.01,6.4 5.59,12.18 7.74,17.26 2.15,5.08 3.4,9.14 3.75,12.15 0.35,3.2 0.08,5.98 -0.82,8.32 -0.86,2.3 -2.35,4.18 -4.42,5.59 -2.03,1.44 -4.45,2.53 -7.18,3.35 -2.78,0.79 -5.86,1.29 -9.26,1.49 -5.86,0.35 -12.85,0.19 -20.98,-0.43 -8.12,-0.63 -15.9,-1.76 -23.4,-3.48 -7.5,-1.68 -13.94,-4.06 -19.41,-7.07 -5.43,-3.04 -8.32,-6.79 -8.67,-11.25 -0.2,-2.5 0.27,-4.72 1.33,-6.68 0.89,-1.6 2.54,-3.12 4.96,-4.53 2.38,-1.44 6.01,-1.99 10.82,-1.6 0.9,0 1.95,0.08 3.2,0.23 1.09,0.2 2.42,0.43 4.02,0.71 1.61,0.23 3.48,0.66 5.63,1.17 l -13.13,-17.62 c -2.5,-3.59 -5.15,-5.74 -8,-6.44 -2.86,-0.71 -5.43,-0.9 -7.78,-0.55 -1.25,0.2 -3.67,0.82 -7.34,1.88 -3.67,1.09 -7.31,2.69 -10.98,4.84 -3.63,2.11 -6.79,5.04 -9.49,8.67 -2.66,3.67 -3.75,8.24 -3.2,13.79 0.7,6.41 3.47,12.34 8.28,17.77 4.84,5.43 11.56,10.12 20.19,14.07 8.68,3.9 18.99,6.95 31.02,9.06 12.07,2.15 25.66,3.24 40.82,3.24 11.41,0 20.51,-1.21 27.27,-3.63 6.75,-2.42 11.71,-5.51 14.84,-9.38 3.12,-3.83 4.65,-8.28 4.53,-13.36 -0.08,-5.07 -1.17,-10.27 -3.32,-15.62 -1.09,-2.5 -2.66,-5.94 -4.69,-10.31 -2.03,-4.38 -4.49,-9.46 -7.34,-15.24 -2.85,-5.82 -5.9,-12.19 -9.1,-19.14 -3.21,-6.95 -6.41,-14.18 -9.65,-21.64 4.84,-0.39 9.26,-0.82 13.24,-1.37 4.02,-0.51 7.19,-0.97 9.49,-1.33 2.7,-0.7 3.6,-1.87 2.7,-3.47 -1.6,-3.21 -3.17,-5.63 -4.69,-7.23 -1.52,-1.6 -3.16,-2.69 -4.96,-3.32 -1.76,-0.62 -3.71,-0.9 -5.86,-0.82 -2.15,0.08 -4.57,0.24 -7.23,0.39 -1.6,0 -3.2,0.04 -4.8,0.16 -1.6,0.08 -3.32,0.19 -5.08,0.39 -3.4,-8.01 -6.64,-15.94 -9.76,-23.79 -3.13,-7.85 -5.98,-15.31 -8.56,-22.34 -2.62,-7.04 -4.88,-13.52 -6.84,-19.38 -1.95,-5.9 -3.28,-10.82 -4.02,-14.73 -1.05,-5.54 -1.87,-10.7 -2.38,-15.5 -0.35,-4.11 -0.55,-8.4 -0.55,-12.86 0,-4.45 0.71,-8 2.15,-10.7 -3.75,-1.05 -6.99,-1.95 -9.77,-2.65 -2.77,-0.71 -5.11,-1.25 -7.1,-1.61 -2.11,-0.54 -3.91,-0.97 -5.36,-1.32 -4.96,-1.25 -8.51,-1.14 -10.54,0.39 -2.07,1.52 -2.62,5.11 -1.76,10.82 0.39,3.94 0.94,8.36 1.76,13.24 0.82,4.92 2.03,10.43 3.75,16.6 1.68,6.13 3.9,13.01 6.68,20.59 2.77,7.57 6.29,15.97 10.54,25.27 2.5,5.35 5.36,11.25 8.6,17.77 3.2,6.53 6.56,13.52 10.15,21.02 -7.85,0 -16.32,-0.55 -25.43,-1.6 -5,-0.74 -9.88,-1.53 -14.68,-2.42 -4.11,-0.9 -8.52,-1.92 -13.25,-3.09 -4.72,-1.17 -9.14,-2.46 -13.24,-3.87 -0.55,1.41 -0.86,2.85 -0.94,4.26 -0.07,1.45 -0.03,2.77 0.12,4.02 0.2,1.25 0.47,2.5 0.82,3.75 0.35,1.25 0.9,2.5 1.6,3.75 1.06,2.15 2.78,4.81 5.08,8.01 8.4,1.09 16.41,1.88 24.06,2.42 7.7,0.55 14.46,0.98 20.36,1.33 6.95,0.35 13.43,0.55 19.49,0.55 0.9,0.15 1.68,0.19 2.3,0.12 0.63,-0.08 1.37,-0.12 2.27,-0.12 z m 195.23,-40.94 c -2.5,-3.55 -5.7,-7.97 -9.61,-13.24 -3.94,-5.24 -8,-10.51 -12.18,-15.78 -4.18,-5.24 -8.29,-10.08 -12.31,-14.42 -4.02,-4.37 -7.34,-7.46 -10.04,-9.25 -1.76,-1.06 -3.83,-1.96 -6.13,-2.66 -2.34,-0.7 -4.69,-1.17 -7.11,-1.33 -2.38,-0.19 -4.65,-0.04 -6.8,0.39 -2.15,0.43 -4.02,1.21 -5.62,2.27 -1.6,1.25 -2.93,3.04 -4.03,5.35 -0.89,1.95 -1.71,4.53 -2.53,7.77 -0.79,3.21 -1.1,7.23 -0.94,12.03 -4.26,-7.14 -8.99,-12.61 -14.18,-16.44 -5.16,-3.83 -10.04,-6.64 -14.69,-8.44 -5.35,-1.95 -10.7,-3.12 -16.05,-3.48 -2.5,0 -5.16,0.86 -8.01,2.54 -2.85,1.68 -5.28,4.38 -7.23,8.01 -1.95,3.67 -3.2,8.4 -3.75,14.18 -0.55,5.82 0.16,12.73 2.15,20.74 2.5,10.86 6.45,20.78 11.88,29.69 5.46,8.91 11.36,16.52 17.81,22.85 6.4,6.33 12.73,11.13 18.98,14.34 6.25,3.2 11.41,4.61 15.51,4.26 4.8,-0.9 8.75,-2.31 11.76,-4.26 2.5,-1.8 4.14,-4.42 4.96,-7.89 0.78,-3.48 -0.67,-8.09 -4.42,-13.79 2.5,0.55 4.57,0.9 6.29,1.05 1.68,0.2 2.97,0.28 3.87,0.28 1.06,0 1.8,-0.08 2.15,-0.28 0.16,-0.35 0.27,-1.09 0.27,-2.26 0,-1.14 -0.27,-3.24 -0.82,-6.29 -0.54,-3.01 -1.33,-7.11 -2.38,-12.31 -1.09,-5.15 -2.5,-11.83 -4.3,-20.04 -0.35,-1.6 -0.66,-3.08 -0.94,-4.41 -0.27,-1.33 -0.54,-2.69 -0.82,-4.02 -0.23,-1.33 -0.54,-2.89 -0.93,-4.69 -0.35,-1.76 -0.78,-3.98 -1.33,-6.68 -0.16,-1.6 -0.2,-3.32 -0.12,-5.2 0.08,-1.87 0.39,-3.63 0.94,-5.23 0.51,-1.6 1.37,-2.89 2.54,-3.87 1.17,-0.97 2.81,-1.48 4.96,-1.48 1.76,0 4.1,1.13 6.95,3.36 2.85,2.22 5.86,5.08 9.07,8.55 3.2,3.48 6.56,7.31 10.03,11.49 3.48,4.22 6.72,8.24 9.77,12.18 3.05,3.91 5.74,7.39 8.16,10.43 2.39,3.05 4.14,5.28 5.2,6.68 1.44,1.61 2.85,2.54 4.3,2.82 1.4,0.27 2.5,-0.12 3.2,-1.21 0.7,-1.06 0.86,-2.66 0.39,-4.81 -0.43,-2.15 -1.72,-4.65 -3.87,-7.5 z m -78.36,-11.76 c 0.9,3.56 1.96,7.78 3.21,12.58 1.25,4.81 2.3,9.45 3.2,13.91 0.9,4.45 1.56,8.16 2.03,11.09 0.43,2.93 0.31,4.34 -0.43,4.14 -0.9,-0.19 -1.87,-0.43 -2.93,-0.78 -0.9,-0.39 -2.03,-0.62 -3.48,-0.82 -1.44,-0.2 -2.85,-0.43 -4.29,-0.82 1.44,2.85 2.3,5.23 2.54,7.11 0.27,1.87 0.31,3.32 0.15,4.41 -0.19,1.25 -0.54,2.23 -1.05,2.93 -1.99,1.6 -5.43,0.32 -10.31,-3.86 -4.93,-4.18 -10.59,-11.92 -17,-23.13 -2.65,-4.65 -4.8,-9.61 -6.4,-14.84 -1.6,-5.28 -2.74,-10.24 -3.36,-14.85 -0.63,-4.65 -0.74,-8.71 -0.39,-12.18 0.35,-3.48 1.05,-5.75 2.15,-6.8 1.95,-1.99 4.18,-2.93 6.68,-2.81 2.5,0.07 5.03,0.78 7.61,2.11 2.58,1.36 5.16,3.08 7.78,5.23 2.57,2.15 4.88,4.37 6.95,6.68 2.03,2.3 3.71,4.45 5.08,6.41 1.33,1.99 2.07,3.39 2.26,4.29 z m 50.28,-40.11 c -1.25,-1.96 -2.62,-3.25 -4.14,-3.87 -1.53,-0.63 -2.86,-0.74 -4.03,-0.27 -1.13,0.42 -1.91,1.36 -2.26,2.81 -0.35,1.4 0,3.2 1.05,5.35 0.55,1.05 1.76,3.48 3.63,7.19 1.88,3.75 4.11,8.28 6.68,13.51 2.58,5.28 5.39,10.98 8.44,17.11 3.01,6.17 5.94,11.99 8.67,17.54 2.78,5.51 5.32,10.47 7.62,14.84 2.34,4.38 4.02,7.54 5.12,9.5 -1.99,1.79 -3.32,3.08 -4.03,3.86 -0.7,0.82 -1.25,2.54 -1.6,5.24 -0.35,2.3 0.16,5.35 1.6,9.1 1.41,3.71 3.29,7.34 5.63,10.82 2.3,3.48 4.88,6.45 7.73,8.95 2.86,2.5 5.63,3.75 8.29,3.75 5,0 8.51,-1.61 10.58,-4.81 2.03,-3.2 3.24,-6.52 3.59,-9.88 0.36,-2.35 0.2,-5.28 -0.5,-8.83 -0.75,-3.59 -2.07,-6.8 -4.03,-9.65 0.55,-0.35 1.25,-0.74 2.15,-1.21 0.86,-0.43 2.31,-0.66 4.26,-0.66 2.85,0 4.88,0.19 6.02,0.54 1.17,0.35 3,0.55 5.5,0.55 3.01,0 5.51,-0.78 7.46,-2.3 2,-1.49 3.6,-3.36 4.85,-5.59 1.25,-2.23 2.15,-4.65 2.77,-7.23 0.63,-2.58 1.06,-4.96 1.21,-7.11 0.55,-4.45 -0.62,-9.1 -3.47,-13.9 -2.86,-4.81 -6.33,-10.08 -10.43,-15.78 -2.5,-3.56 -5,-7.58 -7.46,-12.04 -2.5,-4.45 -3.6,-8.47 -3.25,-12.03 0.39,-2.3 0.98,-4.18 1.88,-5.62 0.9,-1.41 3.4,-2.15 7.5,-2.15 3.04,0 6.37,1.13 10.04,3.36 3.63,2.23 7.38,5.08 11.21,8.55 3.83,3.48 7.62,7.31 11.36,11.53 3.76,4.18 7.23,8.28 10.43,12.3 3.25,3.99 5.94,7.62 8.17,10.82 2.23,3.21 3.87,5.51 4.96,6.96 0.9,1.4 2.03,2.38 3.48,2.93 1.4,0.54 2.65,0.54 3.75,0 1.05,-0.55 1.71,-1.61 1.99,-3.21 0.27,-1.6 -0.39,-3.75 -1.99,-6.4 -1.1,-1.8 -2.89,-4.65 -5.51,-8.56 -2.58,-3.94 -5.7,-8.32 -9.34,-13.12 -3.67,-4.81 -7.73,-9.77 -12.18,-14.85 -4.46,-5.08 -9.15,-9.72 -14.03,-13.9 -4.92,-4.18 -9.8,-7.62 -14.73,-10.32 -4.88,-2.65 -9.57,-3.98 -14.02,-3.98 -4.65,0 -8.48,0.9 -11.52,2.66 -3.01,1.79 -5.47,3.98 -7.35,6.56 -1.87,2.58 -3.2,5.43 -4.02,8.55 -0.78,3.13 -1.09,6.02 -0.94,8.71 0.2,2.11 0.78,4.42 1.76,6.8 0.98,2.42 2.15,4.92 3.48,7.5 1.33,2.58 2.77,5.16 4.26,7.74 1.52,2.61 2.93,5.15 4.18,7.65 3,5.16 5.46,9.57 7.34,13.24 1.87,3.64 2.81,6.72 2.81,9.22 0,1.6 -0.35,3.01 -1.09,4.26 -0.71,1.25 -1.88,1.87 -3.48,1.87 -1.05,0 -1.8,-0.03 -2.26,-0.11 -0.43,-0.12 -0.9,-0.16 -1.33,-0.16 -0.47,0 -1.1,-0.04 -1.88,-0.12 -0.82,-0.07 -1.99,-0.11 -3.59,-0.11 -2.35,0 -4.3,0.35 -5.9,1.05 -1.6,0.71 -3.12,1.25 -4.57,1.6 -0.7,-1.25 -2.3,-3.9 -4.8,-8 -2.5,-4.11 -5.4,-8.95 -8.68,-14.46 -3.32,-5.54 -6.79,-11.33 -10.43,-17.38 -3.67,-6.05 -7.11,-11.72 -10.31,-16.99 -3.2,-5.28 -5.94,-9.73 -8.16,-13.36 -2.23,-3.67 -3.6,-5.86 -4.14,-6.56 z m 246.05,10.97 c 0,3.75 0.39,8.01 1.21,12.81 0.82,4.85 1.84,9.77 3.09,14.85 1.25,5.08 2.5,10.04 3.75,14.84 1.25,4.85 2.3,9.1 3.2,12.85 1.06,4.65 0.98,8.21 -0.27,10.71 -1.25,2.5 -3.4,3.75 -6.41,3.75 -1.44,0 -4.26,-1.25 -8.44,-3.75 -4.18,-2.5 -8.75,-6.84 -13.63,-12.97 -4.92,-6.17 -9.73,-14.46 -14.45,-24.88 -4.73,-10.43 -8.44,-23.68 -11.1,-39.73 -3.39,-1.76 -6.6,-2.93 -9.64,-3.48 -1.61,-0.35 -3.01,-0.62 -4.26,-0.78 -3.56,-0.19 -5.9,0.39 -6.96,1.72 -1.09,1.33 -0.89,4.61 0.55,9.77 0.71,2.5 1.99,6.52 3.87,12.03 1.87,5.54 3.71,11.56 5.47,18.04 1.79,6.53 3.36,13.05 4.69,19.53 1.32,6.53 1.99,12.19 1.99,17 0,3.4 -0.55,5.7 -1.72,6.95 -1.17,1.25 -2.81,1.87 -4.96,1.87 -1.6,0 -4.26,-0.89 -8.01,-2.69 -3.75,-1.76 -7.93,-5.23 -12.58,-10.43 -4.65,-5.16 -9.22,-12.34 -13.79,-21.52 -4.53,-9.18 -8.4,-21.1 -11.6,-35.71 v 0.55 c -0.39,-1.44 -0.74,-2.85 -1.09,-4.3 -0.35,-1.25 -0.63,-2.57 -0.78,-3.98 -0.2,-1.45 -0.47,-2.77 -0.82,-4.02 l -13.36,-5.9 c -0.9,-0.35 -2.03,-0.63 -3.36,-0.78 -1.33,-0.2 -2.58,0.04 -3.75,0.66 -1.14,0.62 -1.99,1.91 -2.54,3.87 -0.51,1.95 -0.35,4.92 0.55,8.83 l 16.83,69.8 c 0.55,2.3 0.98,4.57 1.33,6.68 0.39,1.99 0.58,3.91 0.7,5.78 0.08,1.84 -0.08,3.4 -0.43,4.65 3.05,1.44 5.71,2.5 8.05,3.2 2.3,0.74 4.18,1.25 5.62,1.64 1.76,0.51 3.29,0.78 4.54,0.78 5.7,0 7.57,-4.88 5.62,-14.68 -0.74,-2.89 -1.8,-7.07 -3.2,-12.58 3.36,4.26 6.99,8.32 10.82,12.15 3.83,3.83 7.69,7.26 11.64,10.31 3.9,3.01 7.89,5.43 11.87,7.23 4.03,1.75 8.01,2.65 11.92,2.65 3.04,0 5.58,-0.9 7.61,-2.65 2.08,-1.8 3.68,-4.14 4.81,-7.11 1.17,-2.93 1.84,-6.41 2.03,-10.43 0.16,-3.99 0,-8.17 -0.55,-12.42 2.86,3.75 6.02,7.53 9.5,11.36 3.47,3.83 7.14,7.27 10.97,10.28 3.83,3.04 7.82,5.54 11.92,7.5 4.1,1.95 8.2,2.96 12.3,2.96 4.81,0 8.48,-1.44 11.1,-4.29 2.57,-2.85 4.33,-6.53 5.35,-10.98 0.97,-4.45 1.25,-9.26 0.78,-14.41 -0.43,-5.2 -1.21,-10.2 -2.27,-15 l -9.1,-36.1 c -1.95,-8.9 -0.08,-13.4 5.63,-13.4 4.45,0 9.37,2.15 14.72,6.45 5.31,4.26 10.55,9.34 15.63,15.23 5.08,5.9 9.84,11.96 14.29,18.21 4.46,6.21 8.21,11.21 11.25,14.96 1.06,1.25 2.19,1.95 3.36,2.15 1.14,0.15 2.11,-0.04 2.93,-0.67 0.78,-0.62 1.25,-1.68 1.33,-3.08 0.08,-1.45 -0.39,-3.21 -1.48,-5.35 -3.56,-6.25 -7.93,-13.17 -13.09,-20.75 -5.16,-7.57 -10.82,-14.65 -16.99,-21.25 -6.13,-6.6 -12.7,-12.11 -19.65,-16.56 -6.95,-4.49 -14.18,-6.72 -21.68,-6.72 -2.5,0 -4.92,0.28 -7.34,0.82 -2.43,0.55 -4.65,1.53 -6.68,2.93 -2.07,1.45 -3.71,3.36 -4.96,5.74 -1.25,2.43 -1.88,5.51 -1.88,9.26 z" /></g></g></svg>